<mxfile host="app.diagrams.net" modified="2023-11-29T12:59:58.682Z" agent="Mozilla/5.0 (Windows NT 10.0; Win64; x64) AppleWebKit/537.36 (KHTML, like Gecko) Chrome/119.0.0.0 Safari/537.36" etag="L_aNeBPHQ4BNOhGfWU0w" version="22.1.4" type="github">
  <diagram name="Page-1" id="9f46799a-70d6-7492-0946-bef42562c5a5">
    <mxGraphModel dx="2012" dy="1158" grid="1" gridSize="10" guides="1" tooltips="1" connect="1" arrows="1" fold="1" page="1" pageScale="1" pageWidth="1100" pageHeight="850" background="none" math="0" shadow="0">
      <root>
        <mxCell id="0" />
        <mxCell id="1" parent="0" />
        <mxCell id="b6EZUvEl4iHSQxZVgVPD-1" value="&lt;span style=&quot;&quot; data-info=&quot;&lt;&lt;&lt;---*(whiteboard)eyJ0eXBlIjoibm9kZXMiLCJkYXRhIjp7ImRhdGEiOlt7ImNoaWxkcmVuIjpbXSwiaWQiOiJkMToyIiwidHlwZSI6MSwidG9JZCI6IiIsImluZm8iOnsidGl0bGUiOiJSZWN0IDEiLCJsb2NrZWQiOmZhbHNlLCJiYXNlVjIiOnsieCI6ODUyLjUsInkiOjQ3Ny41LCJhbmdsZSI6MCwid2lkdGgiOjg5NSwiaGVpZ2h0IjozMjEsImlzVW5pZm9ybSI6dHJ1ZSwiaEZsaXAiOmZhbHNlLCJ2RmxpcCI6ZmFsc2UsInNrZXdYIjowfSwibGF5ZXJWMiI6eyJhY3RpdmUiOnRydWUsIm9wYWNpdHkiOjEwMCwiYmxlbmRNb2RlIjowfSwiZmlsbFYyIjp7ImZpbGxTdHlsZUxpc3QiOnsiZGF0YSI6W3siZmlsbFR5cGUiOjMsImFjdGl2ZSI6dHJ1ZSwib3BhY2l0eSI6MTAwLCJjb2xvciI6MTM0MjE3NzIsInV1aWQiOjAsImltYWdlRmlsbEl0ZW0iOnsiaW1hZ2VVcmwiOiJodHRwczovL2ludGVybmFsLWFwaS1kcml2ZS1zdHJlYW0uZmVpc2h1LmNuL3NwYWNlL2FwaS9ib3gvc3RyZWFtL2Rvd25sb2FkL2FsbC9Sd1NQYnp6SmRvbW1ZMnhua3JMY1I0RTZuRlg/bW91bnRfcG9pbnQ9d2hpdGVib2FyZCZtb3VudF9ub2RlX3Rva2VuPUhoUW53VDNkbWhNNEtkYk1TeE1jbUt0Q25hZSIsImltYWdlRmlsbFN0eWxlIjowLCJpbWFnZVNjYWxlIjo1MCwicmVzb3VyY2UiOnsia2V5IjoiIiwidHlwZSI6MSwicmVmSWQiOiJyMToxIn19fV19fSwiYm9yZGVyVjIiOnsiYm9yZGVyU3R5bGVJdGVtIjp7ImFkdmFuY2VTZXR0aW5ncyI6bnVsbCwibGluZVdpZHRoIjowLCJwb3NpdGlvbiI6MH0sImNvbG9yRmlsbFN0eWxlTGlzdCI6eyJkYXRhIjpbXX19LCJ0aGVtZSI6eyJ0aGVtZSI6LTEsImZpbGxDb2xvckNvZGUiOi0xLCJ0ZXh0Q29sb3JDb2RlIjotMSwidGV4dEJhY2tncm91bmRDb2xvckNvZGUiOi0xLCJib3JkZXJTdHlsZUNvZGUiOi0xLCJib3JkZXJXaWR0aENvZGUiOi0xLCJib3JkZXJDb2xvckNvZGUiOi0xLCJjb25uZWN0VHlwZUNvZGUiOi0xLCJjb25uZWN0U3R5bGVDb2RlIjotMSwiY29ubmVjdFdpZHRoQ29kZSI6LTEsImNvbm5lY3RDb2xvciI6LTEsImljb25Cb3JkZXJDb2xvciI6LTEsImljb25GaWxsQ29sb3IiOi0xLCJmaWxsQ29kZVR5cGUiOjAsImJvcmRlckNvbG9yQ29kZVR5cGUiOjAsImZpbGxDb2RlVmVyc2lvbiI6LTEsImJvcmRlckNvbG9yQ29kZVZlcnNpb24iOi0xfSwiZmxpcCI6e30sIm9wYWNpdHkiOnt9fSwiZ2xvYmFsUG9zIjp7IngiOjg1Mi41LCJ5Ijo0NzcuNX0sInBhc3RlVHlwZSI6MH1dLCJkb2NJZCI6IiIsInBhZ2VJZCI6IkhoUW53VDNkbWhNNEtkYk1TeE1jbUt0Q25hZSIsInNpemUiOjEsImJvdW5kcyI6eyJ4Ijo4NTIuNSwieSI6NDc3LjUsIndpZHRoIjo4OTUsImhlaWdodCI6MzIxfSwiaXNDdXQiOmZhbHNlLCJ0aGVtZSI6NX19*---&gt;&gt;&gt;(whiteboard)&quot;&gt;&lt;/span&gt;&#xa;&lt;div&gt;&#xa;&lt;img src=&quot;data:image/png;base64,iVBORw0KGgoAAAANSUhEUgAAA38AAAFBCAYAAADHWBZ7AAAAAXNSR0IArs4c6QAAIABJREFUeF7svQmYXFd177t6nududWue1bKxJEvGxiNgW+CAwbwwPCAihCncF8i7SQy+Dkn47pePkMADnOEBySVAmBRyXy7ckNgGgweIJ9nGsi3ZltSaZ7V6nueu9/13aZV2nT6n6lR1Daeq/sef3N2n9rD2f+1zav/O2mfvolAoFBIeVIAKUAEqQAWoABWgAlSAClABKpDXChQR/vLav2wcFaACVIAKUAEqQAWoABWgAlTAKED4Y0egAlSAClABKkAFqAAVoAJUgAoUgAKEvwJwMptIBagAFaACVIAKUAEqQAWoABUg/LEPUAEqQAWoABWgAlSAClABKkAFCkABwl8BOJlNpAJUgApQASpABagAFaACVIAKEP7YB6gAFaACVIAKUAEqQAWoABWgAgWgAOGvAJzMJlIBKkAFqAAVoAJUgApQASpABQh/7ANUgApQASpABagAFaACVIAKUIECUIDwVwBOZhOpABWgAlSAClABKkAFqAAVoAKEP/YBKkAFqAAVoAJUgApQASpABahAAShA+CsAJ7OJVIAKUAEqQAWoABWgAlSAClABwh/7ABWgAlSAClABKkAFqAAVoAJUoAAUIPwVgJPZRCpABagAFaACVIAKUAEqQAWoAOGPfYAKUAEqQAWoABWgAlSAClABKlAAChD+CsDJbCIVoAJUgApQASpABagAFaACVIDwxz6QVgV6xqekrboirXWwcCpABYKrAO4B33v+sKxubZR3X7EiuIbSMqMA79nsCFSgcBXA9f/Y8W556Xyf/OGNV3L8lqddgfCXp47NZrPODE/Ivx48I4fO98qDpwZkSWWJXNfRKLduWC7vSWDwh3JOj4zLDctb0t4c1PX4yW65ZXW7rKivSnt9iVSgtq1prsuIFonYVuhp4Rsc6Kf4HX0nE/01F3T/62cPyw/3n5AL4zMRc//LluXyp2/clgvmF5SN6Ls/eOmo/OjQOememJX2qlLTj9+/dY3v/mxfC+m+BvS7AT8T+U7JlFNh11NneuX/vHJlpqoMbD16XwyKgbxnu3sCunz/xSPy9y+djiTA2G3XtnXyR9dtDIr7aEeKFEg7/A0NDRlTGxoawk8Ve3rMz7a2tkgT9Jx93u+5eGW61ROkc/nQZvXxq6Oz5gn/Ayf7I75triiR1vJS6RqZipzrqC4zX9g3r14iK+uqzcD5qdO9MjU1Jc+eG5SzY5NmAGIfGIxcv6xZXr+2Y9Ff9jpw+NWx8/L06T55oW8sUlVrebFcv6xJfnvHBt+DnhRdi5FiYN/TZ/ukq7tP/sf+swt0eO9rVsmnb9ic6moTLs/+EoUf0wHNbr5qqyiW1y1tSvhhgp8G2m1C+tND43JiYERmZ2cN3J0dmZT5+Xk5PzEtFyfnXItsrSiWkuJi88DjDeuWysqG6qz1JT9tTmUaaPTP+4/LV/eeiBS7qbFa3r5lvfzTcwekf3JWcP3/+D03R/UX1d1pSyJ9Sq+bwxf7DXDetKpNVjXWmCIXAyPaB584edHco9AHSkpK5MaVrVJWVmbaka7+79c3sPEf97ws1dXVsqqhxthXVFQU0Rj24bD1dAIfPm8uL5aN9RXyTG/4oQYODABxvb1x/bKIjrg/He8flhP9I+a6eLF/PMpUXKMraqvk5jVLzH1+MfqjYNTxP189JRMTE/LM2QF5aeCyffhuePfm5bJr67q03IP8+AD2/fDlE/LkyR7Z2zsayaL3qmx+n9j2a1926w9+2uknje2rb7x8zmRRH+H7e7F9wWmDE+ZODo6a+zXu3fb92jmmsMtBH19eUymrm2rlljXtxsZE7j1+dAlqGuj3l7/aJ/ef6DMmYsx246p2keJiuf/QGXPuk9tXy703vyaqCW737EQ1074yMDAgVyxbIuXl5Sm5n+p3wZGeAXnixEXj19LSUvOdUFxcnJI6FutP3EP/+aXjZnywurE2YhfKTef1qXanHf7uu+8+80V0xx13mDp//OMfywsvvCDbt2+Xd77znVHn1q5dKx/5yEfMuccee0weffRRsc8hH/I3NjbKpz71KZPu+PHj8u1vf9v8/rnPfc7z3ODgoHzlK18xnyMvysDx2c9+1vxEvajLPgf7YCcO5EUZ9jnUi/pvu+02ufXWW006PefWPvuc3/Zpm5Npn91mt/bZ59zap+fc2mef+8IXviDPbrpVRuvCQK83j5vWLZeWS1M++8an5OCFPnn6+HnpuhQt8bp4miuKpaWiXDa11okUl0jfyLjs6R6OJMfgurSkRN7VuczAoNuXif2FgC+BY31DMjMzI//4yvkF1cLeG5Y3S1FZuRw63yeHhydNGnxhAVLxZaCQinLx5TI3N2f+KRCEQiE5Nz5lLmCAWaJPfFHO7n3HzODBHkhhMLapuU7aGuulZ3BI9lwI6wANXtfRKLdtXJEQDOvgfGV9tbFVb4QqitdNR2+m0BHAbA9wnILiixQDz6VV5ab85XWV5qfXTc45INVBng4c7PLNw4SyYukaDUeTUNdrl9TL+rZGWVFXZepB3fiHw/llpDAH3zkHB14w52wffCJFRdJSUSYt1eUiRcXSWlsV6at9o+PSdakPaV4MAmEbBtEAwsVGCNUfhy70iptOqLcNfnC5yP7tva9P6cBGr7XvvXBY/mFfeLAAjW5Y2SY3b1gVdQ944sgpeeBot9elv+C86oaBGfoPvrzxRa7X438evyBPneqNeoDjVTj6yrLqCtN2fCcBSmw4dEIeHkQ5oSae4dr3tR6Uv7a53tiOI5GBL+x59MgZ+eCO2E/dv7LnkPztc0fjmRb5HJr2TM1H/ja+Wt4sbc1N4UGfiOB+3Ts+KU8dPSNdfcPSN+X+oEMLMddlZYVsbKuT/vFp6R0Zl8PWAz+d/QGAdHsY4hzA4wELIP6580MLfAt7W6sqZNOSRgnNz0f6U2t5kXngcvumlUZnPFTEgetc79n4HWWfG50y92v8jrS7rl6XsG8wu2VsbGzB9We+T1a2SlFxiXRd6JOu4fCDT2gASMX1n2g/+M7zh2RDW1Pk/mbf17zAHnXiXjo5OWmA2asvt1Xgfo1bWpG5PvR+jTowKHV7kKD16zXjdR3CVy3lpXJ4dDrS3/RBLq5j+56tCZzfB6eGxgzM2Q/g8PAtFswtuGdXFItIkbRUlktLVbm01FRKUUmJtFRVyKGLA9I3OhHVX+3vlnWtDREg9H2RuSTUBwSAEfuBs50UfcQ+4JPf3Nghf/KGrYupekFe2IL+a8/MaK4olZvWLZO3b14VSY/7wJd/uTfu9e9sg97/4ON1LQ0R2NL+uOdMf9QDHLfG6b3fLgv3Uvthm34PHu0dFJTpFjiIJxz6I8Yq+r2Ah3oAxWQe6gHo4t3nnbAdzz7ogH7w6e0r5X2vvTJect+fpx3+AGR4GglYwHH//ffLvn37ZOvWrfK2t70t6tzq1atl165d5tzjjz9u/tnnkA/5EUX85Cc/adKdPHlSdu/ebX7/kz/5E89ziE597WtfM58jr0Yi//Iv/9KcQ72oC4eeg32wEwfyogz7HOpF/bfccov5h0PPubXPPue3fdrmZNpnt9mtffY5t/bpObf22ef+5m/+Rsa3vVHartgmN61fGRnsefVC3FAO9Q7KwTMXRIpKpKWuStrqa6WlulI6W8MRYueBPDiePHZGDnUPRAAN53DDXFJeIhen5zyjMVpeeOBQaQYOnR0trvWhricOn5QHjl30aoLr+ebyIumfDpnPcMEiUvmB7es94fRfXjlpnko5Qaq5slRuXLVEOtsX2me0u9gvTx49G9EA7cdg4re2rY1Z1+PHu30Nkv002gB6ZYVsaq6R/ql5CYXmzaAPP/umZqRIQtJnDTD9lOlMc3mQ17TAV9DhyaOn5enTPQl9MbnZYcMcbrJ4YIHBgZSUSGtttemXOFqrK+P2bbt846ueQQGg9WJw4QBChRF8QeIhRjwgxBfLL4+eM/Ad9YAAvigrNYPNkIT7nzlCIembtiLooZD0T8+bvvnHt1zl66GB8yEKoj14iIJBOQbOdgQGVZoHP2s65K4rww/S3I7/OHBSDp7DtQU0BaiLNFeWGaCG/qYFIfw/JH3j0wt0c/VhRYlsaqqV1oZa6VzSbJL0jU9KaHZGDl0clP7xKQMKNpD46ZNoDx6+AO47O1rN/ULvRYCj3tFxAezDv+a8jzpsQNzSVCF/8ZbrI6a4ReO8okdI+8n7nzXXNPrwjWuXRrd9ft4MagXX5Nhk+BqdmBE8qOqbnF4AfLH0MNcb7r0X+s29s7i0TDYtaYp5TUTu8+d6pH90Imr2hw7s/Azg9eFccXmlbGprXHDPNg8WLw7I0wBVxzUWq03QDNeDHvqw77e2rHV9OKK+wcOG6OuvRG5Y1izFlVVRA2ct13yfHDkpDxy9/H2C6DdmcHzq+k5XE1GX/TDFT1+Nl8b05aZaaampCPcD9I+J6fB9YmpG+uMAvrN850MEvf7xIAG+unF1R9SDH/Odf7Y78gAznr3xfBd+AFduHsAZmCsuMUCHPoIjmfu1uaaHR+RQd7/0j01F9VmUiT6Ch414cAQojAXx8OH/d+C0eUDgfOhsoLgSayFY92uXe7b6ZEdrrfzb+1/vSzK9Z+P7Ag89cL/GQw+cd4NmzMz48Ote4/ndhv77+MFjcnjg0gwp3Kdxr68qu3T/vnTPnp+T/sk5Cc3Pxb3Pmu/cYjx0apHi8grz0Ana436F8U1obs7cT/umps34wu8RDhxUyKa2eikuK4/cL/RhVvg7YU66egaNneE64vd9vWfjIeQb1i+NTINViD7c3R+JnGo/QeDAeS/58tMH5e9+fcw0B+O8D197xeXvqvl58/3RNzYhvWOT5rrsn8CYKny//q32Evlv/8eb/EoRN13a4e8nP/mJiahdcUW4kb29veELs7U1YlwqztllannxzqXTniC0z02HdLQZ0ckDhw5J+63viNvhUpVABxZ4rxBPmXEBm1Ek+lZluTSbAXyF+UJoqa2R1hpvsPSyKTyo6DdPb5svlQUYMF86HkBgBknHz0rX+b7IF4c+8V3f2ug6ldMMbla0yuZlSzzh181GM6g4ekr2nO6NABC+nBB1xJcTpqkB+KIGKpWlctPqDjNww40QNxgzCBibuAxw86HwgHEC0TUMDDBQbDGRUQysvQDdy0Y9b27uuPleqg8DUtzsDDACHGdnpLNj4cAhXp/RGzvSmTYZdkAbQiLzIembmJTQzLQUlVcsCubi2RHvc4UG7VMGCK3oCPLr9CNEjACEgC1Eg51Pijc2VElne3P4n8cDEzd7njrVLd95/rAgSoJ3Od575SoTIcHgAHWdGhwzgwQ3sHOWp9CM621jS520NTVEIkfxtEj0c9UOA0gDdOd6pLWpwfUBSbyyowcCs2YggL7YXFUurXXV0lpfK52tjQmBvrNOGxBNn5+ZkUO9QyI6qJnGgCM8qHnbmvAUM42a4lzkIVVHk+tsBESu9d2cTY018ulbwzNUgnzo/fTQ+R4DAM4IOu6pGLxjtgdgO9bDwFj37CcOHTNloKzw/T9clvlucHmAA788efi07LkwGCl2e0uNeXCHKd9ukZpNDVWyqb1Zblq7zHc/ufzQszsyk8Wewo577Hf3dkVN9TdR2RUtsnl5x+V726X7p4E2A/Xh+7WCPX5Huze1NUhrQ13COtp9V++pZjA+NhGubx51hQel+C7sNA9Sww9G/Bxu92tzz8bgF/fwMTywEHOdh+/ZYf8lCnN+bImXRm3tHQoDoT0DSfPiO/fa9nB0EO/lP3bkrPzvwxeiIpORBxgV7g8IYvbnruPywPFeM13+b39jh5n14AZ2iGTHm70CO8IzViqkpbJUbu5c57v/xtPK7R6oD8i6Lg6Y6724osr1AU6ssqPupQCjkTHpHZmQvpFR2dTRLEWlGJc0+e5/sbTGZ5GHeqhnFGOWKXN96Xc1Zl29ce1SOdY7FPXg3jz4XNkWno1wKXCA71nM9sEMre/vPWLGYuZB3bplctcVa3xLOjc+ItXdJ+TWW27ynSdewrTD35NPPimdnZ2RSFs8g/h57ilw4cIF2fvii1Kx/Q25Z3waLXZ74ovq7Kmcb78iHG1ezBEZVJy9KHsuhN+xtQ88YbppTYe8PYGbzWLsYV7/CthAeOhCn+v0I9NnLn2xdC5tS8mX3Jceez4q6rGgz1ya2mqm8rXUSlFpqbTW1WRtEOZf0dxJCd//055XpGsoPD1RB/ptTY0LIBpp/33/YXn63GVAQZ/48HVXLro/5I5i6bXUwGnPgDx95OyCVxN0KufmpYk9oPOyWB8SmtcMHA+AEL0IPwxsp2/T6/KkStfv256hETncMyRdQ5ffP9UCLz+8aZab1ixdFGCFxxHxp8tHgV0tHqSUGSjC4RfMkxKkgDLBF5956LlIi8338up2uWnt5Vec8KHpIz0D8tSR6NkId65bIu/YtilhxQh/CUvGDJlQgPAXW2X9sugdHk3oCWkyvtOn63hXB5HEVMBlMnYwT/IKRJ42D49J//Ss61Sy5EsP50Qd3376ZdnUVidFJQS7xeqZbH5zvZ6/KK0N9b4GaHp9Y6rpXVetT7Za5oujgNH5bLf0z0larj+7eh3cY8pzKh7u0LmZV0C/4y/2D8gVK5b6upYTtfLfXzkmvcNj4ffLS0oJdokKmKL05sHNifNy15X+Ind6fSc6s8s2l/CXIuexmNQqQPhLrZ4sjQpQASpABagAFaACVIAKEP7YBwKpAOEvkG6hUVSAClABKkAFqAAVoAI5rADhL4edl8+mE/7y2btsGxWgAlSAClABKkAFqEA2FCD8ZUN11hlXAcJfXImYgApQASpABagAFaACVIAKJKQA4S8huZg4UwoQ/jKlNOuhAlSAClABKkAFqAAVKBQFCH+F4ukcayfhL8ccRnOpABWgAlSAClABKkAFAq9AwcDf+fPnBf+8jh07dgTeWYVkIOGvkLzNtlKBxBXoHhiSfUdOmoztTY2ydcOqxAvJQI5fPLdPLvYPy647bs5AbYlVAdsefm6/dPdd3suzvaVB7n7/26S9yd8G24nVGJ1690NPyM7rtmSkLtSMPnPvV3fLdz77icWYnbK8+46cEuidaq21nV/8/V0pLztljWdBVIAKZE2BgoG/v/iLv4jAn4KgDXx/9md/JkuXLs2aI1hxtAKEP/YIKkAF3BTAwPa+H95vgOVN122V7v4wBOL3IAIWAAc23v3+OwPn0Lfc/VfGrjdduzViG84BjlIJJIAcHE5A/9Dnvi6ZAhT0G1PfJ3Zl/EEB2t89MBilM/S49+u7Zee1WxacT0VHQb/bd/RkxkA+FTazDCpABTKjQMHAny3nN7/5TXnhhRfka1/7WmZUZi0JK0D4S1gyZqACBaHAfT98wAykMYjXAwP7h5/dT/hLoAcg6gctf3rfZ6JypQP+UM+WDSvTAjl+mwwb2psbstJHsvUAIJtt9usXpqMCVCDzChD+LM337t0b+evBBx+U7du3y513hp/WPvDAAwYYOzo6zDk7SohIIvLivKZDXkQWndHEWOUASrUMwI9bXWoL6kTZzjqctuDvj33sY5F2xaofbUCZyIP2e9WPwmCr00bkR17VTCtFnWqr3y5O+POrFNNRgcJSwG+0BANuRAJ14A342Lph9YKIFqIymPqIwwtQtAzAgz1NEQDlnHLqjPJ4DfyRd/+R0wZInFMfdUorInKxpo3GS+dVh7ZZI6Zou0ZNveAvlr3I76ajQvkvnt0X1r65QbasX2WmOgLWcbi1HZ8hWurmM40iIi/85qaf84qIN93Ty78oR9vgZQ/SQBscmN6L9tkRTp1ai8+3rl8tS5rrjRbafjt9Im1z+sPt4QfKw/WS6khuYd1x2FoqkH8KEP4sn2pEEBADqHrrW99qQOaTn/ykgRcAnYLRRz/60Qjk4Nw73/nOCIghHeAJhx1dRBqUg3K1HEw31emnN9xwQ1QZ3/rWtyJlKETatuBDpLFtge2aT4EUdeBAXhyoHyCLz2Gflo2psThgm22jnQafqQ2aRqOogDzU/eMf/ziiqmrz9NNPJ3T1EP4SkouJqUDBKICBOmAi3nRBQAwG4YAzAIICyK7fuDkCgBr9+sAdtxj9kMaePqpTTA2kXLvFDO4xlU6jjphGiPLsaZOItuDQaZ5u8Kf5FBhQr10OBu27f/64KQe/o3y3aaO2fc50GPQDNgAX+4+eitJMQQ3t13K1DU740+mS+Bwwpu8I2vqrjkgDnZBGQRqf7f7ZEwZ4FObC7TppzuP9QoUl2IUpvfABIMmtLvU/AFJ9Eq8/KIDZ0WK9YKATphBDfxywSdtm2+Omo0l/aVov2qb57T5kwx/s1YcFqovtd52qafc3Z9/AZ7AZ5aBO7ZOw1RnFRdpMTq0tmJsQG0oFclwBwp/lQMAf4AWw5Ixe2X4G5ADuFOwUcPC3/R4hYE/BCaAFaAIYeb1bCPhz1o0yAFl29M5pC+BLAU/rARDaedA22GyDmUbvNK++F2kDK84hAqhluZVj22O3Gefjpfe6fgh/OX5noflUIE0KOKNJXtE6t/fZbFhTqHFGRWz4UdDwWiAkWfhzSuMERI3YAEpjvceobXCmc7NbwUIBSOHD2TYn/LlNHbTP+XmXzitaC/1s+EPdznfykBeH2u1sBz5zAnc8ffXzeP5160NOe5x1KTDaunrZ59TFy2/2O6Nuabym8Cr8OR9QpOnSZLFUgArkiAKEPwf8OQHJ6Ued2ggo0miWV3QLIGRH5TTy57W4DODPCZAajVNAs+2BLfhn26zw54y0ATwRkbSBEGlRvgKhE/RQlxN048Goswy3Mv1cG4Q/PyoxDRUoXAUAHYjShKdeNixY8MVt+qI9CHcbpDsHyxo98wKwVMAf7NDInAKDl21Obyt4OSM+bnYrUGpav/DnBmR2JM2rHNtWP/DnBTDO8gE/OGyfxLMhFnwhOurmXy9tY/lGp/yiPvuhQiLw51wcyFmfW/udvvWjfeHeOdhyKkAFCH8O+AN0OEFLo1ca1dP36hKFP+RDZFHfrQMY2pFCN/hzwhdgSqelwnRduVQBzgv+AG1uB/JrO/zAn5uNTiBFGzV6iPSxop1elyDhjzcnKkAF/ChgRwLtaIsb/NnQgkH0Dx56fME7gChPV8B0Rqac9iQLf4ABTHvEVEgcWMAGUw9TBX+wy+1A25KBP6+VP2FvrCmVaoNf+MM0T+fUTCfYZAr+vIDSCYX2tFb1JWxOF/y5aUn483OnYBoqQAVUAcJfHPjTd9xivcfmN/Jndzt9P85+n84NrOyVSd2mUDqjd7Hgz45Cul0CfuDPGc10K0enfuIzneqa6CVH+EtUMaanAoWtgDPa5QZ/Njj4gRY3uLNVTgb+3KDCeS4Vkb94Wwj4jfzFA+B4UTfo5Qf+vNrsjAhmCv782OM2ddjtXCojf36iunYf9btAUmHfPdh6KlBYChD+4sCfro5pRwOdsJcM/KFa55RON/izp2s639FDGX7hz+19PmdX9wN/umhMrG0yYKd9eL2vGOtSI/wV1o2IraUCi1XACWJu8Ic0uhiHn5UQ3baViAd/uhiH14IvbgvApBr+4tmNNviFv3hTX/3o6Af+vN4ddFtAB/anYtpnLJ382OP2ACHd8Odmc6x3/gh/i72zMD8VyD8FCH9x4E8jfxqh02mYgK5Epn3q+3m6TQTKAWzZC7Poap86HdQZ6dOonr4XqLbAxnjTPrUdWjYWnUF+HLq4jR/4U9i0y9EtKnQhG11xVFcTtae2+r2ECH9+lWI6KlA4CuiS/c4VObHMPVZFdE77xOqTurqnTrW00+jiIbvefIvZfgBTMbF6ooKF1ocydJsI5NHtCZwrj6IODMTt1TkVELCwCaZPakRJV5RUCIMXUzXt09ZJbUU9OHRVz1jwZy+6oiuK4t04u932Fg26AIxdl72thgKcvdIqbHFGFe3FXHQ6L6bm2vYkE/nzivK6+Re2qp3qX/U/+pnTHm0D+g+m7mKVVvx0roaKKa3aB/SKdVvwJd47f2oz9IVd6LOqr9tqn27vbBbOHYMtpQJUwE2BgoQ/QI9z/zuIoxErZ6RKp2gijW4BYb/XhrIATs5oGKJk9nt9Gn1DepRj7yOIsgF/SG/Ax9puwoYnBULdTw8rgWLBF3u1T3sRF9vpaid+altQn0Ibysbv9kqnblop3Oleg7olhl0X2m5DaaKXH+EvUcWYngoUhgIKBdhyAYNsDLrdFu3QlRp1uwAdLDvfX1PgQFlIg+mS9j5tuu2C1uWcTmlvPaD7uNmQpYN1+307zYNz9vYIGi3UOt22JrC9HGv/Ol0QB3CAw9l+3e7BuYWE2ubcgkGhxktvhWttkw16CpC6pYICKODHBiKnbwH5bvvm2frid8Ad9kx02w4Dn8eKTjr96+xLifQP7T/Qyuk73VICadROaGb3Nyegq+1hcAzvOazndCsQbPkArQGhTvjzWrSmMO4UbCUVoAJeChQk/AW1O8RbTCWodrvZ5QXSfttA+POrFNNRASrgpoDXZuVUqzAVsKf85psCXltWuEVJ863tbA8VoAKJK0D4S1yztOXIJ/hLdpVPFZfwl7ZuxoKpQEEoQPgrCDf7bqRGSe3pmL4zBywhopV2dNrtvUw/C/EErFk0hwpQgQwpQPjLkNB+qnFukO4nT9DSoA2Y7uncrD5ROwl/iSrG9FSACtgKINLjtTk7lSpMBfxOpw26OvZUVJ1m65zyCiCMN2046O2kfVSACqRHAcJfenQt2FL1PcDFCkD4W6yCzE8FqAAVoAJOBQBLXvsW5ppasdqST+3MNb/QXioQdAUIf0H3UIHaR/grUMez2VSAClABKkAFqAAVoAJpU4DwlzZpWfBiFCD8LUY95qUCVIAKUAEqQAWoABWgAgsVIPyxVwRSAcJfIN1Co6gAFaACVIAKUAEqQAVyWAHCXw47L59NJ/zls3fZNipABagAFaACVIAKUIFsKEABMURcAAAgAElEQVT4y4bqrDOuAoS/uBIxARWgAlSAClABKkAFqAAVSEgBwl9CcjFxphQg/GVKadZDBagAFaACVIAKUAEqUCgKEP4KxdM51k7CX445jOZSASpABagAFaACVIAKBF4Bwl/gXVSYBhL+CtPvbDUVoAJUgApQASpABahA+hQg/KVPW5a8CAUIf4sQj1mpABWgAlSAClABKkAFqICLAoQ/dotAKkD4C6RbaBQVoAJUgApQASpABahADitA+Mth5+Wz6YS/fPYu20YFqAAVoAJUgApQASqQDQUIf9lQnXXGVYDwF1ciJqACVIAKUAEqQAWoABWgAgkpQPhLSC4mzpQChL9MKc16qAAVoAJUgApQASpABQpFAcJfoXg6x9pJ+Msxh9FcKkAFqAAVoAJUgApQgcArQPgLvIsK00DCX2H6na2mAlSAClABKkAFqAAVSJ8ChL/0acuSF6EA4W8R4jErFaACVIAKUAEqQAWoABVwUYDwx24RSAUIf4F0C42iAlSAClABKkAFqAAVyGEFCH857Lx8Np3wl8/eZduoABWgAlSAClABKkAFsqEA4S8bqrPOuAoQ/uJKxARUgApQASpABagAFaACVCAhBQh/CcnFxJlSgPCXKaVZDxWgAlSAClABKkAFqEChKED4KxRP51g7CX855jCaSwWoABWgAlSAClABKhB4BQh/gXdRYRpI+CtMv7PVVIAKUAEqQAWoABWgAulTgPCXPm1Z8iIUIPwtQjxmpQJUgApQASpABagAFaACLgoQ/tgtAqkA4S+QbqFRVIAKUAEqQAWoABWgAjmsAOEvh52Xz6YT/vLZu2wbFaACVIAKUAEqQAWoQDYUIPxlQ3XWGVcBwl9ciZiAClABKkAFqAAVoAJUgAokpADhLyG5mDhTChD+MqU066ECVIAKUAEqQAWoABUoFAUIf4Xi6RxrJ+EvxxxGc6kAFaACVIAKUAEqQAUCrwDhL/AuKkwDCX+F6Xe2mgpQASpABagAFaACVCB9ChD+0qctS16EAoS/RYjHrFSAClABKkAFqAAVoAJUwEUBwh+7RSAVIPwF0i00igpQASpABagAFaACVCCHFSD85bDz8tl0wl8+e5dtowJUgApQASpABagAFciGAoS/bKjOOuMqQPiLKxETUAEqQAWoABWgAlSAClCBhBQg/CUkFxNnSgHCX6aUZj1UgApQASpABagAFaAChaIA4a9QPJ1j7ST85ZjDaC4VoAJUgApQASpABahA4BUg/AXeRYVpIOGvMP3OVlMBKkAFqAAVoAJUgAqkTwHCX/q0ZcmLUIDwtwjxmJUKUAEqQAWoABWgAlSACrgoQPhjtwikAoS/QLqFRlEBKkAFqAAVoAJUgArksAKEvxx2Xj6bTvjLZ++ybVSAClABKkAFqAAVoALZUIDwlw3VWWdcBQh/cSViAipABagAFaACVIAKUAEqkJAChL+E5GLiTClA+MuU0qyHClABKkAFqAAVoAJUoFAUIPwViqdzrJ2EvxxzGM2lAlSAClABKkAFqAAVCLwChL/Au6gwDST8Fabf2ersKtB97KjUtLRIbUNjdg1h7VSAClABKhBTgb7xKekdn5TO1gYqRQUSUoDwl5BcTJwpBQh/mVKa9VCBsAIPffMbcvH8BamuqpT2lStk4/U3Sfvq1ZSHClCBAlEAMPHksTNy8Ey3dC5tlc3L2wkWAfU9fPWZh54z1jWXFcmN65fLXVesCai1NCtoChD+guYR2mMUIPyxI9gKjA4Nmj+DFJFSm8YGh2Skv1/qmptTDkuZaDfq+Pk3vylj4+PSvqRVJBSS7p4+o3dNTY1su/12Wb/t6oLrkPpU/eCZ89LVMyS9k9MiRUWC/1oqSqW5qlyKSkqks61RpLRcWmurjEat1ZXSUl2REb10sN7T0yubVy6V1saGghysQ4f/fLVLfnp6SJrKRDY11sgVq5bJjavaM+KHWJXAticOn5QHjl2U5jKRjQ1VsnnZEmltqE+pr7S/Hjh5Wrp6hqV/NiQb6yukqKxcOjvapLWu2rVvIt/jh47JnrP90j8TWtCU5vIiuWFlm2xelhgIolwcmboW/DhabUK0DEc6ImaZiMb9+8tH5f7D500brm+vlz3dw+Z39P0bV7TKzZvWBkp3P75JRRpo/9SJ8zI7NiyH+8ekb3pWioqKpaW8RJory8z9uqWmUlrraqWorExaqiuzcs9+/NUu6Z+al80rO4wN6eiH8fQk/MVTiJ9nRYGzZ8/Knme+IiVLGXnIigMyVOnU2JicPtdpgGN0aEjGhoZFQvMyPjouIQnJ+PhElCU11VWy4drrZOvr35BWC22wu3D8qMxPTcnoYL+MDQ7L2OiYjI+Pu9ZfU1UpUlQsbcs7pKisQpZu2Ci1jU2eUIh6AI+jgwMycrFbQjNT0n36rIyNjrq0vVrali+Vpes3SN2SjgVlalndx4/J3OS4dJ86JfMz01JUUmqgBUeR+VkkNfW15if+Pt51xHy24+qr5NprrzG/nz9/QV599aAcOXbS/F1TXS0bdmyXrbfe7tpu1Qsfoj16oF0yPy+ljU2yeu1aT58ZiDl6SkLzGHyGzM8iufx7/+SshELzJn9oekqu3LA2pQP7COidvSBdF4fk8Oj0AlvxdF2Ki6V/as5X38NAHy1oKSuRouJiaakqFwEsLmkyA/JkBx7hAc45OXCmW46MzS60s1REiotkU1OdbF6BAXujr4GgDoxRIAbHfeOTEpqbk77RMQnNzkrv2KT0T8wYP/RPz0pLRZm01FaZ6NBiBjCoNxlAUKh6+nRPBFoAKv3T0QBj4GV5i2xesTTpQZaBy/0HZElbqxSV+hs0Is+//fpleaYvfA9D/3HCVXPEV7WyeUXiA0GjQddxOdQ9KEfGL/cFt7q0owAQ8ABjQ3WJPDtk5SkvltaqStm0tEVuWt0hh3oHTQRQwcK0obxINjXWSnNlqfRPTEtofk76JmelKBSSvpk56Z9ZeGm8dWWD3HLlpqR87OtCu5TIBrtD3f0yPz0pfaMTps8CAtzAFlmhRyv6ck0YytGnYw3G9V6B66NnYMjUc3hgXPqn0f7LfS9Sbl2NbF7W5nodalmHLvTK/NSEARZz7zO36SJpLi8x1zI8Zh48FRVL1+CY9E/PS3NFsXz4utcYW8P3z9Py1KmL4c9KRTY11chNm9cl3efjaf+TFw5KUUlx5J5t7s3z4Xt0/+SMufnhXgHrW2qrTf9OJeSY++DJCzI3NixdfaNyZDz6vtxcXmy+S6AdNPFz6LUB3VuqyqSouNQ81GsBLJaWmPtcog/3tF8+fvCoPHiy39UM88CqvlI6l7ZJW1Ojb52cDzPQJ3tHcL+eMfdsfN43MWOuz97pWdPPm6tKTbuaKkrkjtoZeefO1I2likKh0MLHR36U95nmySeflM7OTmlo4Dxnn5LlXLIDBw7I3r0fkrm5EzlnOw32r0BINsljz968IENtNaIoRVJTU2W+9Orqag0gKoy0tS+Rm9/7vgWRQEDIkWf3yP49zwpAsW3Fclm2+coFkSuk6z5xQsb6+2R+ekpGBgZkbGjIQCciYLEOlIvBU01ttSxbusR8IdfW1cr5c90yPDwciZrZZdRUhdvRuqRFxscnZXx0LGY9tdXV5vu+o2OJKWZkZFS6L/YuMKvalCsLQFETAkbHJsJPub0OtOf2214vS5d2LEgyMjoqB149KC+89Ir5DFNC0V43MI9VR/+mq+V8dbO0VJbJTRtXyY1rlprkJurwapc8ePoyMPrvPeEB9abmOrlp0+qEvjABNwfPdUtX96A76FWUmMFTa32tdLa3LCjb7Us3NDsnXb2DZgDUPz4l+Brsm5rxDYtNAAEMVi6BOv4acBlM2/pgEH7TmqVy46XB+qHzfdI7Oi6Hh6N9roOLlqoK6ZucEcA0HrL0OQasfrX3gguc39iAp+lFBniNFpMARjMSlP6ZedN3nO0y09ZWtkrn8tgDRB3wHTx9QQ6PhcXBIO+G5c1RcId0By/0yNPHu6Vr+PIDJGiMQRaeuLfW18Ud5GMK5FMnLniCQ5QvyvBXkTSXFhkQGpgNP3BRH739ivCDTNgGsPLyFdLATjyYCUcsMFgrMVDSVl8rvch/vlcOj0Z3DqS7ceUS6ey43F9tUDl0oU9Cc7PSNzYlh0fCUbnmipIwGMeY3mns7RmUp46eka6h6Idx2n4z0DbNLTIDzBBsR19DXxydNu25ef1yefuVCx8AmXvAK4fkwTPDxpc3rlpiBsFOUFDdeoZGJDQzbcrum5iVvpnZ+NeJsa9IWivLZWNLnRSVlkrfWBgOeyemXOEAfRIPOHDtAB7wwMMNbiMaVBRLSwUe6lSIAIonZiI6axqU1VJSJH1zC68Bv9ce0m1qqJJP3xZ+UGcfRqOL/fLUkTPSdcnHps83Vps2d7bj4UVyEGPX86WHn1vQNj/2G1saKmXz8g5pbYh9/S1oV++gXOzplcN9I3LY7aFXRancsKLZPHTFbAy3/oMy9cGWzIekd3TM9APzEGN82tyjzD07AVhEHr1nx71f4161IjydGhB5sLtPcF2iH9oPHPHgEGVurK0wkco+9NGJ8ANQc2+J873g5gu3e/YnlpfKH7/zzX5c5ysN4c+XTEwUSwHA36lT35OrtnRTqDxW4Ff/uUxKqm+RsvIKA1B1tYhIeR+AkUce+ZUBIYDNum3b5Oo33SFHX3pRzr6yT04eDT8sCMOWyNilyCEgacnypbLsyqukfc0aeeJf/ll6XGAqAl3tbQY4MYCtr6+X+rpaX/ap5bBzdGRUhoeG5cy58zIyPBIFhagHYFtXX2fKRj3Lly2NWwfKPXfugpw7d16GhobDOlRXSW1NjdTV10o9yrtkrxvM2fbp7/E0RzrUe/Bgl5w+dUYmJsIDRwVz/G7gHD9ra8ygVSOMOD87My0nSqvk13N1ESjBk+nm8tJItAID17teg6lK4Wk49oEvSedx8EKvGZQftgajTaUhaa0ol86lzdK5dEnkiTjy4ql4z+CwPNO7EOzxBL21skI2LmmUzR2tviEykcvSCYu9oxMi87PS1Tssobl56Z+YMqDUN4WppXhiHT5ayi9HbXXKaXNlibQ21stdLgNpzaf1HbzQJ4e6e2XPhfC0MOcRHrSHB+yoF1NZW2sqRIoRcSgOP/X2mBqldWCwiUgL2uSETq/6cD5cZ5EBA42O4TwGKdcva5IrVi2P+MIGBC3TCVVe/lAAArz0joxHDVoxyMIU0c3WFNGnTnXLgROn5Zm+ywCNwTPeqTJHKGQgyvjOgP50eFA2hWhHKBx5QbRxRZvcvHF13IhXxFcX++Xg6fMyMIPIN8AcDw68IxYG3DCQXBbu64keyURcVUvjPx/Tmw2snzgv/3HojDEP/e2eW8PQYiJVJ7s9o7ZhDTFQDj+U+srj+937cEVJOApdHR4oY6YDprgmEqWJ9OWeQTMY7x2bCA+4LQgw94mKcmlG9KeuSqSk1EBGLB1Ur97hUTnU3SddA6PGpyjLgKKZglgtrXU1rtFztcvZcD+RcuT9yYuHoiK3bgIaIC0vNTMToF1nR3Mkuu1sG8r81hMvmBkHANC3b93g6hPnPTv8sKNX+kbGI1AavtbDEcrNKy9P0VbIv9jbJ4d7hz1ADw8tmqWoHKDXlFT/j3e92PdsRNQwgwUP1mxYDF/z89H3bNzXzIForZgIYlPJvLR3LI05WyXyUAj9D/cpxwM8vX4UNMN9MXzfNv3+0gOiVjwwv3R94qezr2i7Lg70y9XTvXLrLTfFk8L354Q/31IxoZcCgL/e3hfljbcdo0h5rMC//e+rpL5tpZRXVifUykNdR+TXz70go44oXW1NtWzevFGu2RF+R81Ay4FDcvbs+QURuQ3r18iKFcsNfMUCpYQMi5MY9viBrVTWme2ypibGZLj3gtRce5uJegBInjp+zny5YTB409pl8vYrk1uoQAdXh873yKGLg1FfmIBBjb6oBqivtapCNrY1yGaX6EK2tUpn/aqVn0H7Yuyw63EbfLiVrQOfg2cvyp4Ll6PA4WioyMCl2YkAHrzHd9dV65I2USNZB89F1+UssLmiVG5c0yF3Jdk3kzbQkXHBIDQUMpHeXDrQBkxPfeB4rzSVhGRgLhwVxXHn2ja5edMaM0hFOkTPD5ztdn1g8bbOFWbaNI5kgDdRzVR7P7CVaNmZTK/XpJnKjRkKPZihgGjXlK/ZCQYQy0rNAwncU29Y1iQfft1rkmqC+Q7oGZBD53qirnWvwsxDjmWXQG9JekAvqYakOZMN/unof3znL80OZPHJKUD4S063XMuVLPyhnWZK4oGD0tV1TDZtWidXXLE5Jlgh/aGDXXLm7HkTIbvt1tfnmlw5aa8Nf3YDkok8xBMg8vT0fI/0Do2KlJTJpiX10tZQn9J3BOPZwc+TVyACghgcnh8MT+tcgamJqX1nSC0MP5DokaeOd0vf5JSZdnjT+pVxI3bJt7Bwc0LrL/1yrxEA05VjPfS5/EAAkDAon7plS0aAr1C9E4l+Yur63CVAxDu/DkC8c+NSecdV61MmU/j6C8/kwPWHd5XD0+2b6e+UqbywIMJfGsVl0ckrQPhLXrtcyrkY+MuldhayrV7wV8iasO3+FEjHAwJ/NTMVFaACVCB/FSD85a9vc7plhL+cdp9v4wl/vqXK2YSEv5x1HQ2nAlSAClCBPFSA8JeHTs2HJhH+8sGL8dtA+IuvUa6nIPzlugdpPxWgAlSACuSTAoS/fPJmHrWF8JdHzozRFMJf/vuZ8Jf/PmYLqQAVoAJUIHcUIPzljq8KylLCX2G4m/CX/34m/OW/j9lCKkAFqAAVyB0FCH+546uCspTwVxjuJvzlv58Jf/nvY7aQClABKkAFckcBwl/u+KqgLM1X+OvrG5SWlsaU+TLV5aXMMJ8FBQX+BgYGpakpdX7x2fyEkh0/Ft7zcu265Pc4S6jCFCUm/KVISBZDBXwq8Ivn9kl7U6Ns3bDKZ47MJeseGJKHn90v3f3h/RzbmxtkSXO9vOnarRkxAvW3NzVkpC5WQgWCqgDhL6ieKXC7sgl/3//eT+TI4RMLPPCB336HbNyU3GbUKGzP0y/KTx/8lfz55/4gJd7927/5rinnD/7wd1JSXjYKyTb8PfrwI3Ls2AkZGOg3zW9qapbbd94aSMD60b/+yADqbTtvz4arkq6T8Je0dMwYIAXu++EDEoaqMDi0tzTI3e9/WyBB4t6v75ad127JGFD5ddO+I6cEtn3gjltky/owmD783H7pHhiUL35il99ifKdzgh78Bz/+9L7P+C6DCalAPipA+MtHr+ZBm7IJf4CqjRvXyOuu3xalZCoidrkeqUt118om/AGmEPH72Mc/apqF3wcH+uWRhx+Td73nXYGLBBL+Ut37WB4V8KcAgAWRtLvff6fJoNGrfUdPpgVa/FnlnSqo8Lf7oSdMxE91RAsAZADAVMPfhz73dQPnzugnI3+L7V3Mnw8KEP7ywYt52IYgwN9b73yDp7IKcYjmAQqbWxoj0zndzqEg5MHhhEiv9Fp5ouUh3+GuE1E22Q2xATRWukx0q2zC35e++CW5feftsuOaHTGbiumWmGqp0y4bm5o9wXDv83vNZ15pYpXhNvXUPhcL/lAvbHSbuqplKNxmetooI3+ZuJJYRzoVeMvdfyXf+ewn4kb5ENkCbOAnDkQHvaYY6tRMrzReZXjBi30+FvyhXK86tQyt22vaqKbDz+6+oQWA5VYH0u7+2RNGl12/cXNYn6aGmPCn5SeqI/IB/gCUyKt14bz+7uwv8fyhbUa6rRtWx+0L6eyPLJsKLFYBwt9iFWT+tCgQZPgDMD344K9Mu5ubG6W/f1D6+wYF00IRNXzd9VebaaP4qQCJqaRIh0OnaQLC/vtn/9akw4E8gEj9HPVoeVqHlonzqHPDxjXy2x98R8QHqOeZPS+aMrU+2KXAiTr/7m++a/JpfSjHtjUtDvUoNJvw981vfMvAEqJ8XgeA6ctf/FIErPA3AO72nbdFTb/EOZQHkEQaTCP92Md/NwrG8DkO1Ik0ODTqGM67PQpEMSUVh07zdIM/pNGyjh07Zqat2lFLQOHxY8dNGtjY2NQo99x7TyZdLIS/jMrNylKsAAb99/3wftn15ltivkMH4Nn988cvwUWj7Dty0kQIASA2ROnUQ6/po1ofysN7cCgHsIFomUKNc9qiM8rlhD+UhTagHEyxDANbuEw9MB1yy4aVJgqH9PjM7T08RO9wIOqpNmo5qBdlA7jw803XbZVdd4RBD+WjLTjw+db1q81nbpE/1QDRVrUXwGjbAzt+8NDj5hzSIC3SoA5tAzTW6bl6HnYB5PXQqahajlvboS/KRhucPklxd2NxVCAjChD+MiIzK0lUgaDDH+ALkKbvAALicPzXP/ydCGjhnP03InjPPPNSBO4efCAMkHaE0Y7KIf9b3voGuf6GMBzisD9Hfvyt8Ie/AX72O4V6Tu1Q4HzrnW+M1KuQiXypmNqaiK+zCX8Ao0cuAda73/Mu1/f8FP4AaRoxU9DTc25pAGXPP783AoD6tw1edlQvWfhzRgsBiGvXrY1AJNqIc4BSQGQ2FrUh/CVyRTBtEBUAoCBqBWDCu3RuETGFCBv2FPQ0agiouferu6OmIzqnQgIwcNhgZkfaACKJwp+bpiYy9vu7IhEsfacRcAPQ8YpY2tBlp3ParW111oEFXhQIYZcb/AEiFQ6RRqHX1lEje+oLjbpqWxGtdYK3QrDCnx0htMsBKNt2oy5ApD011alfEPstbaICXgoQ/tg3AqlAtuEPQGSDkDMi94Pv/yQKshBxw2FH4UzU7nXbIvDmBn+ANRsQbWdoVBDvHrpBmRP+9F1F53RVG0IV/r769f8e5XekWeyCNsl0pGzCH+wFPL3w/PMG1HBccwmStC0Kdp//wuejmmdPGVWIdEbUkEajf/jdWbZdYLLw59Qctux9/oVIRNHLtmR8lWwewl+yyjFfkBTQ9/wQbQIY2VEt2OkEC7XdjsoBnJzvCSo0KtgAWryibslG/tx01EifRtM0MmdHxdzyoQ2/eHZfVPQM6dxgywmE+Dse/MVqo0b/vGyw7fUDf17laKRPtXF7f9CpX5D6Km2hAvEUIPzFU4ifZ0WBbMMfFnzxeucPYOiEPyeIQbR48AcQQz6dfvnWt74hajVRfI56dFqmEwKddf7+J/48KhqpjrPtIPx5d2eAXngRmP7I1Egv+EM6HJhiqSuGrlsXvRIsgFIjin/6x39qgMzrfbtk4Q9RSMAepnzqgamfOp3UCYPZuJgJf9lQnXWmSwHACaYQaiRQI3Re8GdPwcTvOBDVsg8ApUKXW2RP0y4G/hBh23/kdGTqJcp0Tst0gpkX/DkBVu3CKp72gXQ4NGLmB/40WuosC8Cp9jojg252+oU/5LUjkfgbdtorkHrBnx+90tUPWS4VWIwChL/FqMe8aVOgEODPFk+nZ7q9ewfY3LPnpQXvETrhzyt6R/jz302dUzi94M9+H09XDcU7e85DF5Oxo4Bu1iQDfxrVs98tVBAl/Pn3OVNSgWQU0GmNCm2x4E+nMOqqoXi3znmE3zkLL1TitbhMsvCnEa5YUzDdwCwZ+MOeffZh7zfoF/4A1roojFtZqYI/tym2qM8ZoSX8JXOFME+QFSD8Bdk7BWxbocEfXB3v3Tu3aaP2O386TdT5DiHO6/uJjPzFv6gAahqx84I/RPJ00Rc/UyvjrSyaDPw5F4RBywh/8f3LFFQgVQrYq4C6wZ/znTK3aZ9OW/xM+3TCYbwFX9xW/3SC2GLgD21wTpV009gP/CFfvNVVnZE5t7r8RP68ynHCJeEvVVcMywmKAoS/oHiCdkQpUAjw59z6wQlmgD0sKKPv+zkXdHFb8OXw4RPm3T2vPIS/y90METvnIijOhVncFnPRRVQ+fe89kZU7v/mNf4wAo9agW0TYUGavxGkv1qKrdurKo1qvvaqoPdVUy0Q6O4+mYeSPN1QqkBoFAHX7j56KOzXQ+e6eRpDs9+PcFkFBOnubhlgLvrhBlk6TtBc3ccKeE7rsaZr2apx+pjF6AawuXGMvAuPcWsEN/nSVVOdiKpjiufO6LZGFZ2yN3LR2etsN2NwWfMECPHZE1C36SvhLzbXEUoKjAOEvOL6gJZYC2YY/54IvME0XREnVO39YJEbf90P5KFdX4dT3/VQSvPeHc/YKo27vGWqZ2MpBt4ewF5Qh/F3uZACncKQsvEWCboVgT6N0bvWAtIOXNoa3399DOgAgysGKmkjnXOBFp4fq5/a7eXZ+tRDTSAcHBiJbPcDWRx5+NBJx9Krz2LETfOePd1MqkCIFdKEXQBwOrPqoK0vawKJgofvKYUsBHM6NxnUKZnjvuvCWEPa7dwqIXp/b+XU7BbxbZ29FoYu36AIpbmWaveqslTcXG/lDW3XFUKycqW2Lt9qn2ubcegLAhc9Qlm4fYeutEIp6cEBHt9VLkR8rtIa3aAhveWEvauP0B2DauUoo4S9FFxOLCYwChL/AuIKG2ApkE/40Iuf0iL3ipr3lgqZznvObBmCHQ7eNsOsFEOKwN5G3P3erI5k8buVkokdme7VPtNFtc3Vtuz3t088m6QBIpPPacN3P5/YG8U7bwoAavcm885wzT6z2ZcLHXPAlEyqzjnQroFEst03Nw/BxGSzibZKu6RUm3bZVQBlYdMRrQ3F7I3U7KqY6uG207jxn53NG6WLp6Vafnd5rI3mvfDjvpque99rkXXWO9bnzMy8bvGxGu9zyJKJXuvsmy6cCiSpA+EtUMabPiALZhL+MNJCVGAWCAH+xXOH1zh/d518Bwp9/rZgydxXwWvAld1tEy6kAFchXBQh/+erZHG8X4S/HHejTfMKfT6FyOBnhL4edR9N9K0D48y0VE1IBKpBlBQh/WXYAq3dXgPBXGD0j6PAHL9gLtxSGV1LbSsJfavVkacFUwGvqYjCtpSCh7a4AACAASURBVFVUgAoUsgKEv0L2foDbTvgLsHNSaFouwF8Km1uQRRH+CtLtbDQVoAJUgAoEVAHCX0AdU+hmEf4KowfkIvzpwi/OhVcKw2OJt5Lwl7hmzEEFqAAVoAJUIF0KEP7SpSzLXZQChL9FyZdU5tnZWSktLU0qb7KZcgn+MP0Tm7E3NjWaLR1w4Bz22dtxzY5kJfCdz21Td9+Zs5iQ8JdF8Vk1FaACVIAKUAGHAoQ/dolAKhAk+Nu/70V55eV98r7f+mDCWj3/62ektrZOOjdf6Zr30MFXzXn9/Py5M+bvpctWeNY1MjIs586e8SwzYSMvZXhmz5NSWVkl265OP8iojbkEf1/64pdk3bp1kU3V0QbAIPbjSyX86f6Dunm7aoXN5bFHoL2/YLK+zmQ+wl8m1WZdVIAKUAEqQAViK0D4Yw8JpAJBgr//8fd/J7t++yNSW1ubsFbIe9c73ukJc4BDHNe89nXmJ/5etmx5JL0bDAL+nv/1s/LGW3cmbI9XhvHxcfn+d78pH/+//m8pKipKWbnxCsol+PvTP/5T+fS99xgA0yMd8AfIe+ThR+See++JJ19OfE74ywk30UgqQAWoABUoEAUIfwXi6FxrZlDgD1G/0dFhueHG1ycsISDtn3/wHfkvv/dfPfP++09+LNdee51vOEzYCJ8Z9jz9hFRV1ci2q7f7zJGaZJmGP0yd3H7NNYKfx44dk9t33h6J2v3oX39kzmFK57p1a0w6gB4icfjMXvXz9p23mgicG/xp5E7LcosMoqz/9a8/MiKiPkT5UBfsev75vTJobRSPz1A/ynWWhXKOHztu8qjdt+28PeIctQX59j7/gmkfopdIY0NsarzpXgrhL53qsmwqQAWoABWgAokpQPhLTC+mzpACQYE/O+qnETdMuaytqzdKdHZujky/1M8xlRPTOJcuXWYidL/1gQ9FVPvlYw+bKZvLlq8wn+NvRAZR3n/85Mcm3dvf8U6pq6s34Igy8TsOlKP5r3ntdaYO1DU6OhKJHCIdooWHDh2MRAYRTTx08IApA/XcetvOSJk4p1G/WJCaLrdnGv4Aa3oAiABwgCA9D9AaHOg3oITzgCQAFI4vf/FLEUjTxV7c4A/nFB5RFiDvmmt2mLJwKOApeCrAaV0vPP+8gbmPffx3TXoFUORTm3Be30G8fedtBlTxNyKGdl32e4rvfs+7BHajHLTpYx//aLrcGlUu4S8jMrMSKkAFqAAVoAK+FCD8+ZKJiTKtQBDgb/++F2R0dFRuuPEW03yAV11dnWzqvMLAE6BqZGQkAlmI4i1fvjwCYgpqCn/4e3h4OAJfyP/r556JigwCNm0Ic/4NO+xooRP08DmgUQFSbQQsqs1nz541wKkHon7V1bWyddvVmXazZAP+Bgb6o6ZUAoQAdp//wucj7ddz9jRPP9M+FezsKZuYxonInZaPcgBsdoTOFt5r2ifKsOEPf+Ow3w3UiKLWr/Bntw153NqSLucT/tKlLMulAlSAClABKpC4AoS/xDVjjgwoEAT4A3h94IMflZqaGhOBQ2TOjuLZ7+shAueM8tlwqFNAkV8jec4y3f52mzaKc4jeYVEY5Hns0XD0EAfsOH/+XARIkda22Wnn2NiY/OB734o5NTWd7s4G/CEqZ4NXeAroiQWRMCzwgmiZLrDiF/6glxPsUJZG8gCazncHk4E/p30oQ6EVUT3YHQv+NE06/YuyCX/pVpjlUwEqQAWoABXwrwDhz79WTJlBBbINf/teelHGx0fl+htuNq12LsyCc4jkYeompl9qVFAXbnHm0amXNoghavfcc89GwM35txtwolw7GuhMY4MhQA/TPxGNRIQSByKP9juGTz/1uFmNdMvWzEf9YE824M/53hzg75GHH43awkG7ur7bh7/9wB+mfNrvBtqXDGDLLaLovKz8Rv68oneAQntKKWxyi/wR/jJ4Q2NVVIAKUAEqQAUCogDhLyCOoBnRCmQb/gBYv/07H5Pq6mpjGKZa2u/34ZwNWl6f67t5zimibkDpBEyFN3uKphsQ6jRQgJ0d9dM6Ybe+o6hRR9Sf7ahfUOAPsIV3/OK9A+cH/tymYjqv7XhTLhOBPzeAs8tn5I93VipABagAFaACVMBWgPDH/hBIBbIJf/teekEmJsblddffFNEGoKcgp+Bmv6/njPwhigco020eAGL2u3Y6DfS1174uapsHlG1v+2D/jd+d0UG1BdtDIIpoR/WcU0CdjkbUDzB41ZZtWesDQYj8KSDFmooJgfzAn/P9PjdhEZmzF2VxpvELf4jo4R1A+50/Z/2Ev6x1bVZMBagAFaACVCCQChD+AukWGpUt+AuFRL7xD38nH/zQx6SqKhz1U8DCipl4104jbFi1U6dx6rt0+jmmW46ODEc+V9jTvfkQocOBqJxu6O7c9kHhDdCJw22RGQVCvPeH6J4dJcRnGp3EZ7BXVwYdGxuVH3zv21l71091DQL8wRZ97w9TQnV1TWyhYIOVG/xppM/eOsHelgFloRwc9mqfeMcQU0qx+iYAbXBgIPK5AptGIvWdQ+eCL5hC+s1v/KMBybXr1po6sLKo/Z4i4Y/3UipABagAFaACVMBWgPDH/hBIBbIFf4j6TU5OyHWvu3GBLgpj+p4fonn2O3668masz8+dO2vescNWD7rlg07FdJan0In39XS1Tq9N37sOHYjaHF6NV5vC8Hh5pdKnnvxPqa9vyGrUDzZlGv4AeQAlBSrbyQAlTP/EgTQ7rtkR1QcAX8798XQfPWf68LYLjxmQ1C0lnHXhcxy6gqe9755tiwIoonpIY9uu9eOnvTeh1oXz2DrCuQCN7neYib3+uOBLIG+xNIoKUAEqQAUKVAHCX4E6PujNzgb8hUIh+cY//L/yOx/+XamsrAq6REnbh+0rdn8/+1G/bMBf0qIxY9IKEP6Slo4ZqQAVoAJUgAqkXAHCX8olZYGpUCAb8Hfs6BHB3n7v+M33pKIJgS3j4IFXZW5uVl5z1das25jpyF/WG1yABhD+CtDpbDIVoAJUgAoEVgHCX2BdU9iGZQP+Clvx7LSe8Jcd3TNZK+Evk2qzLipABagAFaACsRUg/LGHBFIBwl8g3ZJyowh/KZc0cAUS/gLnEhpEBagAFaACBawA4a+AnR/kphP+guyd1NlG+EudlkEtifAXVM/QLipABagAFShEBQh/hej1HGgz4S8HnJQCE4MKf1htE9swZGI1zGRldK4+CpuxrYRzZc9ky09VPsJfqpRkOVSAClABKkAFFq8A4W/xGrKENChA+EuDqAEsMojwZ++z57YlRKplxHYMOBIFTew7iL0AbRvjbSCfatv9lEf486MS01ABKkAFqAAVyIwChL/M6MxaElSA8JegYDmaPIjw5wZV6ZT3m9/4ltnwPVHQdLNTN37/2Md/N2GYTFcbCX/pUpblUgEqQAWoABVIXAHCX+KaMUcGFCD8ZUDkAFQRNPjD5ufPP79X7rn3nih1NDqHk4gMIkqn00LxNz53bsBuF4AN2gcHBmT7NddEQRny/q9//ZHcvvP2qDI1r1c+fO4FqWgD7NHN4bPtZsJftj3A+qkAFaACVIAKXFaA8MfeEEgFCH+BdEvKjQoa/CEKt27dmgXvzQGojh07YcBvxzU7DFwhHQ6cx++Axmuu2RGVV6eQap6BgX4DevgbB97bA+Ah6gd4xPt6+KlQuO7SedSB8zbQecGf5nUCbMqd57NAwp9PoZiMClABKkAFqEAGFCD8ZUBkVpG4AoS/xDXLxRxBgz+8M/fu97xrwRRMt4gg0jY1NZv37nAo6H363nsMqAEQv/zFL4n+jTQAvUcefkTsaZl+p5miPj/53OrNZt8g/GVTfdZNBagAFaACVCBaAcIfe0QgFSD8BdItKTcqaPCXyFRKRAl3XLM9EsWDOMivsKeg54zAOQHTD/zpu3w2mHrlI/ylvJuyQCpABagAFaACeaMA4S9vXJlfDSH85Zc/vVqTz/Cn0UJM3bSPY8eORU399Fq4JTzVFO8XNpvsmDJK+CuM64KtpAJUgApQASqQLgUIf+lSluUuSgHC36Lky5nM+Qx/iPztff4Fs5KnfTj3D/S7ZYPfiCEjfznT/WkoFaACVIAKUIGMK0D4y7jkrNCPAoQ/PyrlfpqgwV+sd/6cK2jGm/bpfAfQy1tu8GdPH9V8icLf57/w+UB0EL7zFwg30AgqQAWoABWgAkYBwh87QiAVIPwF0i0pNyqI8GevxqkNdts+IR78Ia9uum5v8QAodG7M7qwT+exziCJiZVB7U3cvUNX3A7naZ8q7KwukAlSAClABKpDzChD+ct6F+dkAwl9++tXZqqDBHwBLt1ywbU0W/gBiKBPv6+nh3A5C3w3E5wp8ul0D3vdDXn1vEAvMKDgCPpEO2z/o1hEow2uvwmz1KEb+sqU866UCVIAKUAEqsFABwh97RSAVIPwF0i0pNypo8KfQZW+pkKpG60bwXuW5fZ5MHo02Ys/AIByEvyB4gTZQASpABagAFQgrQPhjTwikAoS/QLol5UYFDf7QwKDBUyKih6OMg5G9BxPJm660hL90KctyqQAVoAJUgAokrgDhL3HNmCMDChD+MiByAKoIIvwpALq9+xcAyTxN0NVFddP5oNhK+AuKJ2gHFaACVIAKUAFG/tgHAqoA4S+gjkmxWUGFvxQ3s6CLI/wVtPvZeCpABagAFQiYAoz8BcwhNCesAOGvMHoC4S///Uz4y38fs4VUgApQASqQOwoQ/nLHVwVlKeGvMNxN+Mt/PxP+8t/HbCEVoAJUgArkjgKEv9zxVUFZSvgrDHcT/vLfz4S//PcxW0gFqAAVoAK5owDhL3d8VVCWEv4Kw92Ev/z3M+Ev/33MFlIBKkAFqEDuKED4yx1fFZSlhL/CcDfhL//9TPjLfx+zhVSAClABKpA7ChD+csdXBWUp4a8w3E34y38/E/7y38dsIRWgAlSACuSOAoS/3PFVQVlK+CsMdxP+8t/PhL/893E6WjjVMy09D5+T3scH5Io/f41UtJWnoxqWmSIF4C/6KEVishgqkGYFCH9pFpjFJ6cA4S853XItF+Ev1zyWuL2Ev8Q1K+QcgIjuB4/LhZ+ORWQobwxJ285lsvzdSwtZmsC1Hb7q/VWfjB/vkYHnZ6W8ISRlzSXS/qblUrelwTcMopzJ82NSVFom9VfWprWdqGvk5WGpu6ret31pNcgq3DzweKRb6rc2pV2HTLUpX+qBb3Dg53TPlJS3VeS0jwh/+dIz86wdhL88c6hHcwh/+e9nwp+3j/vGp8yHveOT0tnakP+dIUYLMag69d2DMvDrWZOqqrFENly9VIqkWPb98pSUNcxL6y1NsvID6yOl6IDMWWwiESgto+fh8zJxql+qVjZJ5fI6M7hDOYmUZduh5fb+skfmJ8Zl+OUhKW+vlKLSUmm4qtGAzmLrSEWHGX51VC7+/IxpZ2V7lRSVhSOssA2HU4MI8J3oifjK+KuhxPzrPxUeJJsymkRabm6Uhu1LTDnIO7x/QOYnx2X00IRM98/J9GBRVDPKGkNSt6lSGq/pkNY3tCyqiagP/4b2dsvIKyMyenw+qrzadcWy5I6Vi64nWSMNiL46IuPHe+XCzy4/7DDaNYq03NIkS968POk+mKxdznw2+Czmmohlj/pq8NfnZfTAqIweD5mHCeUtJWnxkRPmZG5OJs6NSmhuRqZ6p2W6d1ZmBkIyPRhbRfipZmO5NG5rkYpldTkDhIS/VF0dLCelChD+UipnYAsj/AXWNSkzzA3+FHpQSUt1eJCZ6gN1HOodlIu9fXK4d1gOj81Kc3mx3HXlGrlx7bJUV2fKs2Gub3xSeodHJTQ7I31jE9I3PiMyPy+9M7MyMONefXNZkWxqrJbOZW3SWl+X10BowxGiHTrIqmoslWtu3SDrt3dERBodmJQH/+k5mRic8+03QERRUZHUbCg3QIPBmcJWz6PdMjc+KqMHx2XsZDR8OCvAAFSKRMqaisMg1F4lVSsaImVpejOIP9Uvo6+OLYAMP0bD3vLGIilvKZWiMkTA6qW4ojJhQFQ4g62x4Anpjv71ARk95l9TaDE9dFkvAPr6bR3SuWOl1DZVmmbCV+dP9EvX3tPSe3IiZtMrG4qlpqFclqypl9LiMhkcGJXTLw1F5cHgunZztSx584oFA2t7AI9M092TMnFmSCYvTsjAc5chVAuEvau3NktFSbWcOdYtfScnzUfQvhWQuqM9UjeiO4hG4vrFv6m+GZnpnZNQaF6mB8N9q/UNrbLifav8uDeSBjZffOi0DL88LGMnQpHz0GLNtmapKK6RgYEhOfXSZeoobyoy9SQCw6Yf4MHDzLRUtddIqLhYioqLIlCPivXBhv2AIwKkpwZl9MCIjB6LBma7sWUNYR3gIykuljL03eKS8IOEjmpz3dkPEew6TZTz0YsyPz4iFx5a2E/gq8r6Yhk4Fb5Zou/VrC+RyuUNUlRcLBVLKkxdqFcPrSvcFybCMAff9U7LTO+sSGheRk/4dxd8gvZV15dJdVOF1DZUSElRqRQXlcpcaEYuHB+QvlPhPmQfps9uqpCGbW1SsbR6UUB4+QFBj1z42bin8Zgdgd6kV2coJLL+Dzo96yb8+e8HTJlBBQh/GRQ7i1UR/rIofoaqBvyduNAtp5dfaUCsq2dIjoxHDziby8LGNJeVSFFRsTRXYRBRKi01FdJaV2MGES3V4cFl66WfTmgEeD11/KzMjg7LT8+NLmgdwK9/OjyQaSoNSWtlhdy0cWXU4EHr0MxaFyJzBuZGxiQ0My2h2Vnzd//krPROe8Ocm8TNFRisFElrZbk0V1WYNsL2/vEp6RqKHgQ1lyJpkWxsrJYrlrdLS13NooEQdT154pzMjQzJnosjpnw9IgMHY2H4r+ay8OCqs6NZ3rGtM2avcT5Nn7owLnPTUzLVM2UGX6F5RHpCMuOI9qDQza9vk9dcsz4CEc6KABX7f90lfafGBaMcDMqqGssu2Rm2FX1nPoTIYUjGBqaiolBuhhv4aCyXjjVN0tTcIO1rGmV0aFJGByZksH9YhgfHZXxgUsaGZmRyyHsQ7Cy7qqFYqhsrpH1Ng5QVV0rH2kbpQNkDk6b8sYFJmQ/NybkT/cZe/D0+NCsTQ7FBDAM8eKa8GdGQFREYCA/0e2XohYtRg3Wv6NGZfz4u5/59wJjdsqpKXrsz7FfYgQO2DQ+MGVvnQ/MSknkZH5gWDC/Hh2Zkw/al0rn9MvB5dQq0t/vEoJw6dsEkqW+qkcamOqlpqjR6xMp37niPdL1wNgJoSGumldbPy/RIsWsfssuDb2sbK6RjTbMsX9/mWh/sO7D3hLz6q7B9fg6Ui/41ORQGNwMlG8ul6dplrnCmUzmH9/UvAG086Fh/dbssX7fQPth24cSAHNx78jKkNoSkbnOlLLljteug3vSDRy/K4Is9Mnb8Mlj6aZdXGgX0tjV1BnxGBies/jAvE6bf+r82vK5D46u1zQu0gA6HXjgt6A/9JxcCfSJtMzAnRVLdUGpgDrMK6hqrpaSoxPRN9EscsfqmW33az88cvygj/eMLgNA8QCouktpNldJwdZt5gBRrerOZ+v7TkyYqPGbBKuxHdL1YSi6ZEQa+8BGSieE5c2/EgXsJ6m3duVRWvGfhw07CXyI9h2kzpgDhL2NSZ7Uiwl9W5c9I5SMDvfLlY2NydPryE9rmylLZ1FBlwKN/fMY8Te+bnpX+Kf9RCBjfBGgMiQyEZwpGDgBWa2WlbGpvks725ggwAXwOdvfJ08fOSdfwwie2yQiiMNdSAUAtl5aaSikqKZHW2mppqakyRQIi/UY4NWJ56EKf9I6My2GHnQYIiwGENXLlyqXSXF0ZEwhRHuD1wIlTsufCsPTPXB4uNJcXiRRd9svl9ocigwgFZnz2lhUN8pvXbomSCeX/5yuHpGf/iFz983B7Yx0Ao6qGMikuCgMSBjPX74wuM14ZiXyuwDXaPyFnT/RKVX2xlJfUyIarOzxB0618lIPjMhyOyMjguAz3j8qytS1hyFvXlPDA0VmXXQ8GkkMDqGfCgBkgTKdVYmBXt6VRps4OmylyeoSjce0yJ7Ny4FcXzekwoJRJ9Zo2wfRWRFkxkHztbZuiIqyJ6JqptOq/M0e75fzxfhkfmjaD9qoGRGCKzSC+rqHKRGMaLg3gkx28nzp23sBAcVGJNDTVRmCgtqFyQV8xEc7jfXJw7ynpPxWevg04D0cpV8rgs2cXTOVEX197dausXL80oX4SBqBTcvZYz+VImJkWGp5SO/xSnwzt648CPoAl+viyda3GtvADh3nzsAH9aXRoytx3DdgPTouEQjIXmjUAVl5cKUvXtSRko7k2rGtEHySgTPMgYXBS5k1dUzI7P23sKi+uTug61L6gfU/rAAKhLWjX3PyslBSXRfoC0rr5L939V4HwtAHCsUgf0XpN1LS4WGo7K6Vx+xKZODciI/sHF0Raq80DgrAfE+nXqP9Hf73HVLf0riZZ8qbl0vPYRTMFHTMeMAW68yNT8t6P3JEyKYpCIQQc03c8+eST0tnZKQ0Nhf2ORPoUzn7JhL/s+yATFhD+MqFydusYHeyTX14cldGWFdLZ3uIrcmVPn4T1iLKF5ubC0yfHJiU0Py/9E9OCr5q+qfC0oBtWtEpxeYW8fbO/aVgKWciL8kw9Y5NmEATywWCif3xamkpCUlxZLUUlxQbmEB1MBOZSoX4ECM/3Su/oxAIgBAS3lJdKa22VbF7RYWw8eOa8dHUPyuHxy2SM6GdrVaVs6miWm9YsTQhI/+npl6VreMJMnb3n1mvkiUPH5IETfZHmXTUjcldXnbS2tJqBeH1jjdQ1V5vPszH4SoXuQS3DHtjBRh3o77htQ5TJkejR8yek7xKgIMGVb+iQa2/fHNTm5ZxdGkE89uLFqAgxABsRs+amRrn6trUpaRfqeu7Rg1HTQrVggMKG7ctk+63rUlIXC0mdAgrGmCpqIoQD4wuAMHwtl8jabW2ycn1HQrDnZinqfODbz7rOWkDfXPXmaXnfH+xMWSMJfymTsnALIvwVhu8Jf/nvZ8DfxPSk1Gy9Mf8bm6EWKhwfvNgvXYgQjk0uAEI1BVHWG1cukc4Of+Dt1QTU+UTXcXngeG8kCUAQ0H3zxtVSeWSvLAutlmVVhIpMdAMM7A6/cE623+ZvoB8GlOMJR50y0ZZ8qUMjU4jQuU3lTGU7NbL0yvNHZdX6ZXL1ramBy1TayLJiK6BAiIj22NC0XH3rmpRLhjp++aMXpWNteGq7Trkenx2S3rJX5JZbU/e9TPhLufsKr0DCX2H4nPCX/34m/GXGxzYQ9g4MyOaVy31FWROxzrwvePS0iT5uXr5Eblx1eYGMsX1PE/4SEZNpqQAVoAJZUoDwlyXhWW1sBQh/hdFDCH/572fCX/77GC0k/BWGn9lKKkAFcl8Bwl/u+zAvW0D4y0u3LmgU4S///Uz4y38fE/4Kw8dsJRWgAvmhAOEvP/yYd60g/OWdS10bRPjLfz8T/vLfx4S/wvAxW0kFqEB+KED4yw8/5l0rCH9551LCX2G4dEErCX+F4XhO+ywMP7OVVIAK5L4ChL/c92FetoDwl5duXdAoRv7y38+Ev/z3MSN/heFjtpIKUIH8UIDwlx9+zLtWEP7yzqWM/BWGSxn5K1A/M/JXoI5ns6kAFcg5BQh/OeeywjCY8FcYfmbkL//9zMhfYj7uHhiS9qaGxDIFIDXhLwBO8GFC34UhaenIvf7lo2kZSwINcfR1D0tLe735nZpell/1CYomsfp8oV4PhL+M3S5YUSIKEP4SUSt30xL+ctd3fi0PAvwBqPYdOWlMbm9qlK0bVvk1P6PpYOeHPvd1+el9n8lovamorJDhr+ul04JBJGBg07aV5l8Qj6cfeln2PPSy/NF97wuieTlhE3z913f/i4E9+Fn9fucHb5Qb7rgq7W2AD9HP3vbB1G3OHc9otPfO37nJd7/+vdu/JH+x++OBAGL464HvPikf/G9vcbUn0bbF0ypXPif85YqnCsxOwl9hOJzwl/9+zjb83fv13dLdNyRbN6yW9uYG2Xf0pAHAndduCRwEEv5y63rAwP97/89PjdEbr15lokCHXzotGHD+0VfeG4jBr61okOEPg/BcgNI/2/UNcYIebL/+jqtSCn/oWw987ykDLU4fKnhm4mpR0HXaEavuIMEf7Lz/e0+FH3pY1ySuUcA72qdt04c3mdA123UQ/rLtAdbvqgDhrzA6BuEv//2cTfgDTN371d3ync9+IkrofUdOmb+DFgEk/OXW9QDwwyDdCS1BnUoWVPiDXoCqv3/knsB3ADewSQf8BcFXCk2I4iVyBA3+YDuu1eaOBhMxVbDWiL2J4HYPL4D6RNqca2kJf7nmsQKxl/BXGI4m/OW/n7MJf794bp88/Nx++eIndsUUGulwXOwfll88u0/aWxpMZPBN125dAI0oD+kBjne//20L3s+774cPmCmmKAMRxl2/cbNJA+BE3rvff2ekTMDefT+8P2KfF/yhvv1HTkv3wOCliOXqqHp3P/SE7Lxui+z+2ROmbtTptD3dPa0Qp336jYpg4InIEKIPGHAiQug2DU0H2/CVWxp70IrP7WgT8uKcPfXQOUXQDShgD/4dfjH8QARlYjCs72tpnYh2IRLlBrvIFytdLLvVJo3EoCyFaXymdkBDO+Km+TRas3HbSt+RNy0L7UG9drn4DOdUixve/JqIDfC3badOhXSDP2ebERm2y0L5KEsjx7a/nf0AGqC/6MMGlGVP+1Qfon/Bd04t1Bbtg/jbzR7nPQIQhzY6p5g67Xb2GeSDD+3+7jZt1PZhov0dtiK/uVY6Gow2ek3Y/VfbpNN17QcM0OGvP/U/TZJEATfd99N0l0/4S7fCLD8pBQh/ScmWc5kIfznnsoQNzib8wVi8QwcYMtM+PRZSAbABsD5wxy0GogBQAKk3XbdVdt1x9WzAaAAAIABJREFUs2kz4A1TSJFmy/pVBuSQ7ou/vytSLj7HsevNtxj4e/jZ/SYtQNENRJ2w5wZ/CqawHwfKxNRVG2i1Xnwens7q3daEHegzQyHCnw6C473vhagWDqTDQBWDYgw8bQDEgB8AhoE00uA9JRwKQhodA9yhHEAP6teBuRuAoMz+S/XoYNn5zp8OoDX64YQse6DvBhbaPdQ+HXgrgOjUWLQJdpt3sL73lGmn2q4Dcx2A28CH/Pgc7VbIgM0oA+WhPnyOdvl9Lw3+0Pf1bHCBhjjgF+iLMu1oET5DXvgEoKF2ummvDwZQvg1f2mb4Rt9FQ9u0DabuC0Py9M9fMf1BpySiLi1HbcRP1Q7pbB+66YvPoREOtM0ux3mZe0Vj9Tw0sLVXHVEO4E/9jbZpW+33AP30dwN0MfqNlmtfE9DUawquMyKp7/tBQ/s68XnLy+lkhL+cdl/+Gk/4y1/f2i0j/OW/n7MNf4C23T9/3MAbIAxg5pzuCfjD+4AKevCKE9YAWFvXr45KY+dTcMMUUzfITBb+3HrIW+7+KzOVVevR9xqd01sz2bsKEf50kK4DaTO4vgR4tvZe74lpREcH1M5FMux88abgJQt/zj7ijA4qXLhFgOy82gZnOje7Fd4U9rxAQ6NwzqgMBvGAHTvKqTChsPziE4cXdP+rb95ozimM2+V62eAEBj/TPt3a7Iw8wQYb0OL5QT/XSKFCofNvGwg1yqUAb7fXBm63VTm99IDvUGesBV3c/OO8BjQ6aC+OFK+/O/uNV9/yWtQI5Ucg2VqgyX7AkMl7ZjbrIvxlU33W7akA4a8wOgfhL//9nG34U4V12qVOybSnbLrBn0b6FLIAXIi2IaKnhx2Fw9RLTBn1ArDFwh/yY1oqjh889LixRSEW8Oc2TTWTvasQ4U/11cGjLvbiHNTbg07NY8OKDs6xIIV96HRRQA7gzjndz067WPjTKaKIgMAeBQW36XJu/coLFtRuTHl0ArECRCz408ibrbXb+4FOwLn3PV+XzdvD0XIcdU3V8u7fu9X87gZe9qIgTjtt0PQLfyjDq81qg0bP3PT0eufPCXtufcstOqfAZtcV6908N2DUvKgz1hTLeBrpdEu3/q593E+/cUa2YV88uxX+MnlvDGJdhL8geoU2CeGvMDoB4S///RwU+FOldREYe0qnG/whvUbY8DumjyLSZsMfzuO9PrzHB/hzTse0vZss/ME2vOuHerZsCG8hgHNO+HOLaGaydxUy/Nk6OwfeOtB3Djrtwb1GU9y2iNApbG7RQ7veZOBPp2SiHNSDQ6c7phL+7P3wbJudU1qdC77Yi3RoPq/BvVf01O0acNNSpxC6+cCeThoPbFAffBGrzX5s9Qt/XgBnt9FLs2ThD22039XUvq0RxHga6QOFWP09noawgfCX/B2e8Je8dsyZRgUIf2kUN0BFE/4C5Iw0mRI0+EMznSDmBn/O9+/03UGvhVRQJsrx2qMvGfjzmkqqUUg78kf4S1MHTqJYZ5TOK/Kn7xnFm4KnQKHTRN1MSgb+vKYn2lGixUb+3KYlOu1PJvLnjJopQPtZMdQN/vyurhkPbNA2P212m/Zo65II/LlFEG070wF/Thi333uNp5Gf/u5HQ8JfEjenS1kIf8lrx5xpVIDwl0ZxA1Q04S9AzkiTKdmGPwCU8x08ROlw6Dt+bvDnnMaJNDjs1TptyTBN1KzcaS0AY3/uBn86tVSB0WsBGOd7hIS/NHXWBIu1V360szrhwg3+nFMP3dLYZTrfaXOa6hYlc65G6gQK/I2pqvYebs73qhYLf87y3CT2ioS5tUmnDDoX2fEDC1q3G/zZU2/d3oHTvPHABun8vBeXqnf+dJEae7sRJwgnC38o2w9MO/3kR6N4kWw//SZR+IsH3Ale/jmdnPCX0+7LX+MJf/nrW7tlhL/893M24U+BDYu5YNVNTJ/EKp3Y9B3v/GnkTFf7RFQP787pdg721EqdLoppn4iyaVn2u3YKjFhdFAfKsT9H9BDTTZc015utG/D+Icq1o4VIY95HNFtFNJjppli9E2UivZv9eOePkb/MX0sKV1jZEsCAQbZumWAPxu13pGClLhBjp9EonK6oqemc5eBzXUHSBjd71Ue7DjtaqANqnaanUACQ0gOraOJI1bRPlKVbFOjUUtjtfJdPYcisFnppJU03+FO40hVD7RUn/b7P5QUeOvUT0zxhg5sPvMBGV6VUcLRXs0Q5zjbb2utKnpgq6lwBVf2vUySdkKswrKttmtVUv/ukWZFU8yQDf7DZra36AAEaoW71r70AjB/4U5vs/gyf2ovSxOs3icCfV3Q583eNYNRI+AuGH2iFQwHCX2F0CcJf/vs5m/AHdRFd23/0lHkfT9+bc07d1MifbuGAfLo/n+0hgBoWeenuDw96wtsqrIpyokb43OpSW5Af7+/BDgCj2yqj9oI0SKN1KgTa2znoPn9eW1lkopcV6jt/Gj2DxgAaHM590TSqhwEoIMBrTzoMiHXZeZTl3BcOZStUABjs5fXxGfIqWCpo4bz9bpUTHuw8ahfq0Dbo9gJ2dNCrP6Fsr3Ru9djl2J/riqm6DYW9qqfmUbvw08+edXZdupCO2ztn8XwAbZx+0XcnnVsM2GW5+TxeXQpyToDH37bt9tYQblro585+afvZzadekOxsl3NfPbdy4Utnunjtd/Zpp4bI7+zfsdqKa6PQ9vPzulYJf5n4VmQdCStA+EtYspzMQPjLSbclZHS24c+PsV4LvvjJyzRhBQoV/vz4P96UTj9lMA0VyLQCGinGqpyxpsJm2q5E69Oon3N7kETLyaf0hL988mYetYXwl0fOjNEUwl/++5nwl/8+JvzF9jHhrzCugXxspU69dYtC50p7ne++5ord6bST8JdOdVl20goQ/pKWLqcyEv5yyl1JGZsL8Iepmji8VvJMquEFlomRP2+HYwDttvl7gXURNjdHFcjl/us1DTRHXZEyswl/KZOSBaVSAcJfKtUMblmEv+D6JlWW5QL8paqthVwO4a+Qvc+2UwEqkEsKEP5yyVsFZCvhrzCcTfjLfz8T/vLfx2gh4a8w/MxWUgEqkPsKEP5y34d52QLCX166dUGjCH/572fCX/77mPBXGD5mK6kAFcgPBQh/+eHHvGsF4S/vXOraIMJf/vuZ8JdbPsZ2FjgS3TaCkb/c8jOtpQJUoHAVIPwVru8D3XLCX6DdkzLjCH8pkzKwBRU6/OkefXe//86U+CjV5TmNwuI3F/uHo/Ye9GM44c+PSkxDBagAFci+AoS/7PuAFrgoQPgrjG5B+Mt/PycDf4g+3ffD++WLn9iV8wKhLd19Qws2g0+2YdgoHodzc/lky9N8gD5sTN89MGjgb+d1W8yG9vYG9LHqIPwt1gPMTwWoABXIjAKEv8zozFoSVIDwl6BgOZqc8JejjkvA7GTgD4AD+PvOZz+RQE3ZTwrQS3S6ZPatDlsA+Nt/5LT5iQPteNN1Wwl/QXEQ7aACVIAKpEgBwl+KhGQxqVWA8JdaPYNaGuEvqJ5JnV2Jwh+mNf7i2X2iINXe0hCJAN73wwdk12/cLLt/9oTsO3LS/I69+RRccA7pt65fbSJXCmI6ldFAzrOX4KalQe5+/9uiYM1ZN+BHy9Fo5K4332LA1ADSpTIQIVObP3DHLRFg0vLsNiAf2gFbUSYieDuv3SJbN6w2tmg9AGD8jbyoE+k0H9La00iRRzXBZ4je2W3D5/d+dbc5B9vteu29DXH+Q5/7uqlL6/TbExj586sU01EBKkAFsqsA4S+7+rN2DwUIf4XRNQh/+e/nROEPinhF/u79+m4zhRJABGBScAFkKaRpXgVDA3zP7TPghPQ4D6hyvjungPTF398VAUKk0WmPCkYoQ8ELoIRDI2RedQPMNIqpQKj1IM/+o6eigBFlar34HDBnt3Xf0ZMRIFa7MEVWp4I667ChTqFQNYFdCsnQF9AHfQGLiUReCX/5fy2zhVSACuSHAoS//PBj3rWC8Jd3LnVtEOEv//2cDviLByVOsAPo2ACmgAnYUfjRNDb82d5RgPrpfZ+JnNZInG0PyrTB1Fl3vAVbAJSxplsivw1/zr/VOJQD0AMQutmOdEhjQzJAUwESdttRwXg9lfAXTyF+TgWoABUIhgKEv2D4gVY4FCD8FUaXIPzlv59TDX+Y0um2CIlO/YSiiJTh0AVj3OBPgcgZ+UI+exqmesgNoNzAC0DY3twQsdFZt0YYdTonftrvCWr00OtzZ52ATTdNbAj1C3+L6Y2Ev8Wox7xUgApQgcwpQPjLnNasKQEFCH8JiJXDSQl/Oew8n6anGv7sqFoY9MLvqeFduy3r///2zjVGr+q898874ws2vszNjI1NjA32wGnABGFzSZSEUELd5MBJb6pKFKogHakfKlWgwlGlVkfKhypUQdU5H9oPJW1paY44rVrSS4oDSc9pDLGBJITmkPFMYkPAeOy52Nie8Yxn5j3675lnWLNnvzNrv+/aa++1939Xlc37rrWeZ/3/e5z9m2fttT4ULVnEO3hmdcwW/jAe4OuZQ/8eLS81q2Ku4E9lQ04vvPLGkjj6vfm+oPn+XRL8xTXBGCaEEv4sb1Y2owJUgApUQAHCXwVMDnGKhL8QXUufM+EvvWah9cga/gBDuMxqoIJV2sqfqa1W4HQZqGv4MyEQoGZWIM08Vlrmib644ucIHnzkD6PPsHST8BfaTw3zpQJUgApkpwDhLzttOXILChD+WhAvoK6Ev4DMajLVrOEvvswSaeIzLP1sBf4wjvlOnCv4ix8HkbRhiyl1PG4jGIzv7onc9f1Ewl+TNy+7UQEqQAVKqADhr4SmlmFKhL8yuLjyHAh/K2sUeotm4E/BCxufXNW1aWHjkfhmKminFTpti6WUelh5GvhTqML7c4ipSzJdV/4AZXochRlHN42ZO2php9x0/TWR9cgDl84l6T1D6IILyz/1rD5z90/CX+g/RcyfClABKuBOAcKfOy05kkMFCH8OxSzwUIS/ApvjKLVm4U+PQDDhLzr7LrZBigIgjkvApe/94Z093bkS8INz9eK7V8Z3tNSYQ6PnIvhaqT3GNeNoLvhzudgaR/PVtiq5OXc9/0+/S4ppagC94n3wfdLunfgsqW0z1nPDl2ZUYx8qQAWogH8FCH/+NWdECwUIfxYilaAJ4a8EJq4whWbhr/zKlGuGhL9y+cnZUAEqUF4FCH/l9TbomRH+grbPOnnCn7VUwTYk/AVrXarECX+p5GJjKkAFqEBuChD+cpOegZdTgPBXjfuD8Fd+nwl/5fcYMyT8VcNnzpIKUIHwFSD8he9hKWdA+CulrUsmRfgrv8+Ev/J7TPirhsecJRWgAuVQgPBXDh9LNwvCX+ksTZwQ4a/8PhP+yu8x4a8aHnOWVIAKlEMBwl85fCzdLAh/pbOU8FcNS5fMkvBXDeO57LMaPnOWVIAKhK8A4S98D0s5A8JfKW1dMilW/srvM+Gv/B6z8lcNjzlLKkAFyqEA4a8cPpZuFoS/0lnKyl81LGXlr6I+s/JXUeM5bSpABYJTgPAXnGXVSJjwVw2fWfkrv8+s/JXfY1b+quExZ0kFqEA5FCD8lcPH0s2C8Fc6S1n5q4alrPxV1GdW/ipqPKdNBahAcAoQ/oKzrBoJE/6q4TMrf+X3mZW/8nvMyl81POYsqQAVKIcChL9y+Fi6WRD+SmcpK3/VsJSVv4r6zMpfRY3ntKkAFQhOAcJfcJZVI2HCXzV8ZuWv/D6z8ld+j1n5q4bHnCUVoALlUIDwVw4fSzcLwl/pLGXlrxqWsvJXUZ9Z+auo8Zw2FaACwSlA+AvOsmokTPirhs+s/JXfZ1b+yu8xK3/V8JizpAJUoBwKEP7K4WPpZkH4K52lrPxVw1JW/irqMyt/FTWe06YCVCA4BQh/wVlWjYQJf9XwmZW/8vvMyl/5PWblrxoec5ZUgAqUQwHCXzl8LN0sCH+ls5SVv2pYyspfRX1m5a+ixnPaVIAKBKcA4S84y6qRMOGvGj6z8ld+n1n5K7/HrPxVw2POkgpQgXIoQPgrh4+lmwXhr3SWsvJXDUtZ+auoz6z8VdR4TpsKUIHgFCD8BWdZNRIm/FXDZ1b+yu8zK3/l95iVv2p4zFlSASpQDgUIf+XwsXSzIPyVzlJW/qphKSt/FfWZlb+KGs9pUwEqEJwChL/gLKtGwoS/avjMyl/5fWblr/wes/JXDY85SypABcqhAOGvHD6WbhaEv9JZyspfNSxl5a+iPrPyV1HjOW0qQAWCU4DwF5xl1UiY8FcNn1n5K7/PrPyV32NW/qrhMWdJBahAORQg/JXDx9LNgvBXOktZ+auGpaz8VdRnVv4qajynTQWoQKYKvDv4jPRs/YSs3bDDWRzCnzMpOZBLBQh/LtUs7lis/BXXG1eZsfLnSslij0P4K7Y/zI4KmArMjJ6UmbGTsua62yhMgRX43qEH5NLwD6W2vku6dt4v1+552AkEEv4KbHqVUyP8VcN9wl/5fSb8ld9jzJDwVw2f85wlgOXi0X+Q82felK6+n5d1Bx7IM50lsZHfqcN/Jl29+6S9e3tmYKXgNvLm89Jx1YetY6HfyMt/JZdf/VdpOzs6l/+tn5SrPvO4tHdd3ZSWkxfeifq5rEo1lch8J+QzOf6OXLrwjly8fFa6Oz8sa9fvcJafzhcxcG266o5W0m3YF3G+/8LnZHZ8WDZs2yOT50fk8oVRaVvfLVuu/SW57pbfayku4a8l+dg5KwUIf1kpW6xxCX/F8iOLbAh/WahavDFDhT88EE8NviLnz/TL5cFXRc6ekXpHj9S6tkp7bZWs7t4ha7t2SnttdfSQjau98+qmH5abcQ45jn33b0SkJpv6PpEZVDSTm48+mP/pl/5c5MVnl4Sb7eiW1dffKh13/HouuiC39488K+NHn/sAqOaznO3oFOnolSv23i4b9368pfwQ5+x3vyaXBr4rbSeOJco+29El0tEj7d07ZP2eO2R17QqZHntPzk+dkdq3/vaDPh0d0rF/v4wPDsrU8eMys7lDVt92UHru+sKK9zWg5J3Bp2Vs6CWZGvlRNCaApHfXr8mufY9ldjuY0AWwO//+gFyenZSLZ16TGZmR6ZE3l42NHNvX9coVG66JllBeuXFXIriZcUZPfUemZifk/OlXZLY+I5dH/t+SGBh31bqtsm7jTtmy9W65YsOOhXF1rHOnvysXzg/K5My4XDjzmkyPn5JarW1hrPZ1W6Kfbfzf3FWTqZH/iP527f7PyM997LMycW5E3v7Ry3LiRy/L9DwEbrvuN2TnTY80pTnhrynZ2ClrBQh/WStcjPEJf8XwIcssCH9ZqlucsW3gD1UbkXr0IIU/Z8bek9n6bPT3en1W6vgb/rsmsq57t6zp2dnSA3NcHa2YnOv/N5kaOCptJ/qXCtjRIXL2rJWw0cM9ko1gcZu0ta2S1V07ZG33TmmXVREsNguK0cP+kf8ll47+k7SdHUmEnvbr9snmvZ+0rvzoIBh74e9jJ2Vm5F2ZGv2ZTNenZHpmSmbhy+gpma1Py/q9d8lGC+DUMbGUEOPN1KdlavRtuTwzGY0Hj7vv+oK1n3PA+zW5/M2nF3Jt6+iQLQcOyNW33y4jAwNy6uhRmfrpTxe+hx+1jl7ZeMevyNqeXaliDb/8tMy+8LVFY815u0Wkq1faau3RLwNWwd+undJWa5Ozx74l8tq/zfXp6JCu/ftla1+fXBwelpHBQZkYGZGZ48cXeQdAm961R65o37AwFsaN3yuY//mjfyfjx74jteM/XjRGe2endO/fLz1798rE8LCM/uQnUazp0VGZbXDvQrvOAwekd+9e2XTddQvjnTl6VI5/4xtRP+i37sB/ka6DvxN9r1W0oZMvyNmhl5fAz+oNXdK5fY+MvjsQAUn7+h658a7/uQSqMM5bA1+V4Tf/PFq+uHrdNunZ9knZtvvXF1Xk0O7UT5+VqZkJmbj4lkxdPCnTE0NR9Wu5a9WVXVKrofrYLes2d8mGTT2yqr0m6zZ1yeXpupx+51gET+NDg0uGAbzVruiWWq19WYA0Y3Rt3yNtbTW5+P6wXDy7dNza+m6pjy/9mdXg7Vd2SVsNPxFzF7SLX2hz4Bcfkq4dexd9hXkcf+NlOf7KP0efQ/NdNz8um40KpFYlo+rn+eMyW78c/TxOjr8baYp/c+syK+tv/px85sH/avVvnU2jWr1e1znZtE/d5vDhw9LX1yebN29O3ZcdwlCA8BeGT61mSfhrVcHi9yf8Fd8jFxkC/rZ984hs/89/kDjce//jN0SOz1UK0lx4WG6/7pYIctIs81PQO9//f2Ry4KjUTix+gEYOeCBef/31srG7Wzr37Fn0UDw5OvdANjk2JpMjIwJEHR8dlQk8YNfrMjX/2czYmNRTwuLM5s4IJmpnzYfaurSdHUuUpuPee6W7pyf67v2RETmHio0BPfg8AtHdH5YruncJnoSnZ6dkdnQO4vCgh1gLS/3SGGC0RZVt5sO3Sfs7J+bHHEk9JvKc8/PuJX5Gyzpf+Qc5/+Nvf1DdAlQdOCBbY9CiacEneHT62DE5OzAg0wZsLXfvINa5I8/KhFGxq3V0CMAK9ZfIVyDrCt62dXbK1gMH5EO/8AuJqmp+w8eORb5NxnyzsQIxOm+7TXr7+hbdo0l99b59f3BQput1mRgbk+0HDsjarq6GodAHIH3qyJFovjObNsvpj6yTS+OLK4xrNnTJ1TfeKduu3bsISgAkgz98Sd5+9V+iGF03PiQ3fOS/y9tv/LG895O/kZnxM9HnACiMYUJY+/otsmXXL0Uw2P/9Ly0BTBO6AJqr2kQ2dvbIlZu7Zd1GwF63jYRRG+SJa/idY3L67WNyeba+AIUa54qN3RHQrm6vRTHw/3EAiwfEuBPnR+T9sWEZevuYjJ8bkcsXRyMY7d4xN9aWD+1Nne9yE4trbi3CfEPA5fqbf1U++/B/S9u1YXvCnzMpqzsQ4a8a3hP+yu8z4a/8HmOG9T/9I+n8x6/LTEeH1HbfvPBOVvQe1F/9TlRlW7N7t1xz++0LgqztbvzghorG6cFBufjqq4sEBICs3f+LsqnvkwuVHQW9C/3/LpcGj0jt+NIlYAp6G7q7pSsGei4cWgKL9bpcHBuTS6j+iESwCKAwKzOADVy62AvQ1j7/GWBzW1+f7LjvvoZQgS/GBgZkuEGVyeyIWIgDuGmr1WRNV1cEBO21mqyf/0z9WNvZGX2n4HJmHlwAnFNXXy1rTs5VDnXMVV1dH4yHh/xaTdZh/Hl/MR6unx05IqNHjy5oABBs271POvo+JWOn35Dai/97IWXkue322xvOv5FnyBmQdXpgQC7E7p16tET0NpkafkvajF8GKFyjqph0md7ie/wyYKZej35hsBxULZdjNM78LxYw1sIvFubvFWi3uadHrmngv4t7Nj4G5vnOkSPy1smfydC6I7JmY5dsv/FO2bpzMew1ig0g+c6zT8pUrJKFcW6487Nyzc/dGXVFO1TjTrzxslx4b2DRcL033CG7b7rTKShloVVRxoSW3/+//yhtbRJVE9dv7In+bG+ryfrNnXLl5rlfGuEyYfn8pRk5cXG9fPTjdzubCuHPmZTVHYjwVw3vCX/l95nwV36PMcPpQ38re999V86/9ppcnq++4OEe1ZP2s2Oybvdu2ffbv92UGHgoPXn0qIwdOxa9o6RXBA8J1TJACeCmY88e6c4A9JqahIdO0AkVnzjEuQr9k1OnZHBiQu7btaulIRUyAK5mpQ4VLgDYrgZVtGaCItbwwIAMHTmy6N4BXPYuU7FrJlZZ+vzz+2Oyt3eN9G5anXpKgJG3fvRy9H7ajhvvlP/0sc8uOwbaoxJ38kR/BCy3HXwodUx2SK8A4S+9ZuzhQQHCnweRCxCC8FcAEzJOgfCXscAFGX7y6Atyx5VXSu/q1VHF6N2jR2X4yJGoyrPl05+W6w4edJJpfJkfqmmrAXrXXx+9A2W+z+QkIAdZUODE5KS8OT4uB+creS6kie6V/n7Z3tfXVBUtTQ5672hlM03fKrVtBf6qpFPIcyX8hexeiXMn/JXYXGNqhL/y+0z4K7/HmKEJf9WYcfVmmQX8VU/F4s+Y8Fd8j1rNkPDXqoLsn4kChL9MZC3coIS/wlniPCHCn3NJCzkg4a+QtjhNivDnVM7CDkb4K6w1zhIj/DmTkgO5VIDw51LN4o5F+CuuN64yI/y5UrLY4xD+iu2Pi+wIfy5ULP4YhL/ie9RqhoS/VhVk/0wUIPxlImvhBiX8Fc4S5wkR/pxLWsgBCX+FtMVpUoQ/p3IWdjDCX2GtcZYY4c+ZlBzIpQKEP5dqFncswl9xvXGVGeHPlZLFHofwV2x/XGRH+HOhYvHHIPwV36NWMyT8taog+2eiAOEvE1kLNyjhr3CWOE+I8Odc0kIOSPgrpC1OkyL8OZWzsIMR/gprjbPECH/OpORALhUg/LlUs7hjEf6K642rzAh/rpQs9jiEv2L74yI7wp8LFYs/BuGv+B61miHhr1UF2T8TBQh/mchauEEJf4WzxHlChD/nkhZywNDh7+Trr8vV+/Yt0vbHzz8v773+urx/6pR86rHHZOPWrdH3+Lz/+edl09atcvdjjxXSjyySCh3+4PHG3t4FH1WjJD/RFh7D+/0PPbTk3shC36KM6QP+zg4PRdPt6Oltatrffu4Z2XXDTXJt381N9XfV6XuHvynfP/yCdPX0yue++IirYTMfh/CXucQM0IwChL9mVAuvD+EvPM/SZkz4S6tYmO2LCH+vPv20vPKXf7kgKOBt+759ctsXvrAIAPCg/60nnpAHvvKVhc/Pnzolzz36aNQWkKdgiDHxHT7HpUAYpmvpsi4q/P3JPfcsmgi86rvvPrnhvvsWff7XDz4Yfabe4ctvP/FE1Mb0E/6iLcDe9D6dWuG2zhL+/v6rT8pP+384B37dvXJ2ZEhuveteufuBB1NMqU7DAAAay0lEQVQJ9tQTj8vuvptT90sVZIXGmAuuu++fy71ZkHWZk+1YhD9bpdjOqwKEP69y5xaM8Jeb9N4CE/68SZ1roKLCHx7ktTqHv/cfOhRV7lDJi1f6TAEBeSYU6HcAjQeefLJSlSCde5Hhz/REYT4OevEfEIW8zz/zzCKIh/fv/uAHkc9VvLKCP8DS6PCQPPzYlxdkRQXw7776pNzzwIOpqnh5wx/y/srjvymPfvkvgoI+FZ7wV8Wf7ADmTPgLwCQHKRL+HIhY8CEIfwU3yFF6IcCfThXVHizn04d7wAIuXRIIKEAlEBcqSFr9QbvnHnlkASZRRUTlD+2j/vPLQvF3fHZ+aChxKSnGw5UEn7rUdNu+fVGVskiVxVDgT/VH5VarueqHqTu0xr2gvxyA3rgi+Hv99YVqoFYQk5YGJy0lxbi44HOjZaZYTgxv+z796UJ5jLyzgr/ff/hgtDTy1o/eu+y/Oif6f7gEBPEZKoVaXVP4+8hHfz6qJGLZpfm9BgCkNfo+aelpo88QF0s8EQdLTfF3wKwu9UQV0qz8aduknJAbvj83fDpKE3Mw+2rO+D6rpa2EP0f/w8dh3CpA+HOrZ1FHI/wV1Rl3eRH+3GlZ5JFCgj+tDKHig79jaSj+1AoQHv7xAI8HdwU1AAJAAZ8D2vA5AA1gACCMLzPU5aEKFgqOaI+HflSWcCmAahUK32PcpHcN8/Y/JPiDVvBLPcLfAXQAPHiigK9ABz/hIX4poFVfhUG0V/9+68UXF9mASrBZOcS9gGv7LbdEHuMXAGaVWX/xgFgXhoasqtC+fc8K/gBsK70bB8hDJRAVNfMCOJpVNoyFJaOAK4AX/g7Ie/h3v7wAUrrEFN/jwvdYoqnwicrdL3/xkUWgiT4YU5ehAtLe6n8jqlgit0/d//kI1pCjQirmhM8AhboUFPHQB3mZOeFz5I6+AEcdW6uh+Bzfa47IuZllsSvdM4S/lRTi97koQPjLRXbvQQl/3iX3HpDw513yXAKGBH/x5X5Jy//wkA5IM98Pg7Dxh318ZgN/SeMhrlb2kr7He2eIH393LReDRSRE+INWCuD6fp+5DBga2yz7tIE/fU8U4+llepz0PX6ZANg0++Tlr8bNCv50iae+5xeveCF+GviLg6QJbrosE1DVaFMYW/jDuIAxc0OXRss+8blZxYvDJDaq+d5L31wCt5i7jhmvjiLPOEC2eo8Q/lpVkP0zUYDwl4mshRuU8Fc4S5wnRPhzLmkhByT8Ld5gJF7502qiuamMaWTSu4TxMfI2nvD3iKxU+VNgT1qy2+g9UvRpdF/k4XlW8Kdz0R0yAYHRpi33P7gATGngD/BoLiHVcbWKBmhC1SwJMpGLLfx9++vPLIE123f+4vNZ7l1FjPnUHz2+JBbyNCuWLu4Jwp8LFTmGcwUIf84lLeSAhL9C2uI0KcKfUzkLO1iI8KcP8j4qfzBOlx5iOal5fIDGj78DiCWDaFuUjUdChD+zept15Q8e65Ji+IalnSYEokKsnpo/yOaS4yL8gGcNfzpHwA6OSTArYa3Any6Z/NJT34hC4L9ffO6Z6E9AogmZaeAPOZqb1KBvI/hDLLTXHU11rrqMNQk4TSgGaGLZqXnpctO0O6Iudy8R/orwk8YclihA+KvGTUH4K7/PhL/ye4wZhgR/utGHb/jTO0GX+pm7UWrlD9CgV5E2e4kepicn5c3xcTnY2Vmom7rRDqyALbx7p0t3fcCfCqPvkgL2tKoXP1YCbYvmMXLyBX8mROnyzFbgr1HlzASyZt75s4U/zd1cohmfz3JVPK1c4j1E88riCAnCX6H+CWMyqgDhrxr3AuGv/D4T/srvcWjwBygwD2j3Vfkz7wR9h0zfNyva+31Jd21I8NfIU8wrq3f+kjQz3+XUw+SLUslt9C+TT/hDDmY1rBX4w/t00aYvxlES5hzj39su+7SFP4wf3V/GmYVJyz4bbXpju5TUxf+iEP5cqMgxnCtA+HMuaSEHJPwV0hanSRH+nMpZ2MFCqPzpDo+oxsQ35Yhv/JFmw5fldvZU0EAbc1t/XQKqeeg7gdgZUo8HACwU6biHUOBPK6vxzXJaqfzhBw/3iLlzpy7j1MoegB67hZob9MQPltf/1nshqU/eP+RZwJ9W5czdNfEZljkC2MzdPeMbnOjOnmZFTXcO1aWcClk6vh6XYB7BEH/fLmlnT3yGHT3N3T5t4c+s3JlHUuDdRp2fLk01dy41j7ZQQDXPPcRnLpd84v4i/OX9U8b4iQoQ/qpxYxD+yu8z4a/8Hhe58odjHHDp8rqkg7+TdmFMA38YX6uJepwAjhjAVv665FCBBGAH+ATU4Z0w8z0/rQzhe+SEXBUei3AXFRn+TH2gW1xbfB/3NO0h76aHgDZU8HAepAK8udQT8cyjIjQ/8xcQ6nFSrnn6nQX8YT7mO346P8CZuYsmPgdE6btvACNU8uLHPwDksJEL2unY5i6ZJljq90k7dmJcVOL0SAWA2s6+mxY2kolvIqN5N6rSAR7RB/CHNsgpvmGMzk/zMmEzuk/ndwTVWK43eyH85fnTxdjLKkD4q8YNQvgrv8+Ev/J7XFT4q4by/mZZVPjzp8BcJPP4Bt+xfcTLCv7S5h4/NqFRf9t2aeM32z7poPhmx8qqHyt/WSnLcVtSgPDXknzBdCb8BWNV04kS/pqWLqiORVz2GZSAASRL+AvAJAcpFgX+HEyFQzRQgPDHW6OQChD+CmmL86QIf84lLdyAhL/CWZJJQoS/TGQt1KCEv0LZkVkyhL/MpC3MwIS/wljBREwFCH/VuB8If+X3mfBXfo8xwxDhD8v3cBVxu/0i3jWEvyK64j4nwp97TYs2IuGvaI4wn0gBwl81bgTCX/l9JvyV3+PQ4E83eInAb/5cPWzWgYPXdYOWLF3DxiG4zF0hs4znauyqwx/um/5Dh5zdI7jn8P9Z3XO4z957/fXUmwYR/lb+idENZeKb1azc064FxsdmNI2OrbAbpXErwl+rCrJ/JgoQ/jKRtXCDEv4KZ4nzhAh/ziUt5IAhVf6w6yO25DfPW2u0u2crYjeCBRzrsKG3txLw5xqYWvGj1b4Atf7nn08NU43iNgtnK81DK9rYeVZ3nEXu5s6yy40RMvxhd9DR4aGF3Tp1no0+X0nLRt9nCX+6YYwJf643tSH8Nes8+2WqAOEvU3kLMzjhrzBWZJYI4S8zaQs1cEjwl3SgehbwF8qh3rY3UjOVv6RjNGzjsV1zCugZknqsCEbBsRO2x4aEDH84JgHHNcQrco0+b07h7HqZx1xgHh3dvaLHXVzbd7OzwIQ/Z1JyIJcKEP5cqlncsQh/xfXGVWaEP1dKFnsc3/CnB6CjuoGlbeZZaXpgOh5+t99yy5LD1dFXl1ziPD78PQn+AC4YCzGSxoIjWg1CJRFXdEj71q1z/X7wg4Uz/fAZlvfpgfAaV13VChn6bNq6VRp9j8PBMQbiYc4+D4FPC39a2TL1VgBR/3CmIapppn/aD5qhWmVWrKAT/IBG6NdIB9OX+D2gWse1xH1g9kNOep+YOZnLNJeLA2+1H/I082g0ns4P93SjueFehY5awY7PT+8p/JIDlx5Cb/svSJbwpxUzVOdwxt+uG24SE2rM8/kAPjjLD+fz6QU4eqv/jai6h+/MQ9z1gHRAEz7X8/oafY4xV4oH8NILh71jTFzIAfmZh6/jjD9AJ/7UcwORox74ruNgzBefmzufEN+fGz4tm3uuWjRPPS8Qyz5dQt/CvzeXZuTExfXy0Y/fbXtbrNiuVq/X6yu2aqHB4cOHpa+vTzZv3tzCKOxaZAUIf0V2x11uhD93WhZ1JMJfUZ1xm5dv+MODLR7McYi7HtwOWMBh6wph+BOgpOCFB2vABg7mRh9ABaAO3yfBH8bSB2uznz7848EfbfCuIEBCQQYP5vo+Fx7yIyCcj6OwgNwUhPSwcYyDnNBGgcmMhbxx4TOFH3Mct44uHS0t/CnIQFtdYqsgB90wB52nwh/aAnzxHeAH/kE/7QdtknQwl/GqntAXcKzeKQTp93pfIBbGRFuMAx/wJ3LBAe5oh7iajx7qrlVN9QNtAO86V/0lhPk9+pj3h9keipv3HCAXY+j9rY78yT33RHpAM70PoKPmqvf9woP+qVPRPWO7sVFW8KcHowOQcLA6LkDQL3/xkQVA+v2HD0YQhIPNAXEALvwdAAXwwwWw0+8AWY9++S+izwFVaA8wvOeBByM4Q79Gn+t7dWgLwEI7LLU0D1UHOOL61tf/OsorgrnuuUPh44e3I3eMgzaYH3JBzshPAVAPjTfbKCgqSGoeD//u3OH2pj6ufsZZ+XOlJMdxqgDhz6mchR2M8FdYa5wlRvhzJmWhB8oD/iCIPojj7/pQ/1svvrhIK4CiWf3Af5tAgcZx+MPDNB68zfEV9vQhWwG00YYdjZZ9IpYJbfH/xncKORo//t/aBrBgPvRneZOkhT8zx7gnyBtzin8ez18rpQrKNjqstNxW7xNAmkKlLpU0/Y4vD47HjucWz11Bzvb+UFg0c8CY8fsV8Ac9zA2D4rliLI1rVl5t7o+s4E+XNCqsxXMBaH3vpTlYsr0AXCZcpVn2qRVBc1MVhTP9DG0AfmYMBU2AmZkrcgHYmpXKrzz+m4tgEm0+df/nF1UMn3ri8QhoFf4QUyuGyMesbtrqslI7wt9KCvH7XBQg/OUiu/eghD/vknsPSPjzLnkuAfOAv3hFRB+eAXrm9dyjj0YPwvqwbAN/GAsXKnrmhb4KW3gINwEiLrwt/CW9gxgHlCToQTzkECr8oaq6HBhhftiwxKyO2eigFTlU8pIqXkm/JEjyKv4LgUZAjhhJy2/Nyl/S9/GYjWAxfn8keY6+5jLVVv4RyAr+kBNgKAKd+WqemSeWOsaXUibNQyuA+A59moU/hS6All6owpljNoJJrc7F4S8OiYihS1e18vmlp76xaFpx+GvFO9u+hD9bpdjOqwKEP69y5xaM8Jeb9N4CE/68SZ1roDzgzwQ6TB4P21gGmrSroS6pRDsb+DM3zYgLi6qhjrMceNnCXyOAMx/obaAn6xvAdeUvCf6gu1aqsEwRoGYu6bTVIf6+pum/K/iD3sgH9xyWlmJpr77zqV7o9/jTXJ6M75PgLwng4pXhkOFPgQ2QBdDTJZf4fCUIAvQBzFBZQ19c8apcmsof4ummKvGfHbPyl7SBTDPwl9THZt5Z/FwT/rJQlWO2rADhr2UJgxiA8BeETS0lSfhrSb5gOhcB/lZa7qdi2sIf2i+3Q6LLyl98GSpimw/5ttCT5Q2TNfwlLXuMe9qMDvpLAQV1l/Bn6q3gmvQLAXNjGH0n0LbyF68Ihg5/qpkuA8W7bXgnDmCHK+nsPK2axTdAaWXZp02lMYvKX1J10Fz2meXPsI5N+POhMmOkVoDwl1qyIDsQ/oK0LVXShL9UcgXbuAjwp2Cw0u6GNvCHB3Nzw48kY1y986ebn5igqfH1nbhmoMf1zZQ1/CW9+6i7piowNauD+Z5cVvCnwN5oKbC+M6qexuEvPleMl/R+YlngD/MDgOmunFrZiy+LRDuFvzg4tQJ/8ff7kn5eXMIfxo+/A6if3XrXvYveA3T9sxsfj/CXtcIcvykFCH9NyRZcJ8JfcJalTpjwl1qyIDsUAf4gnFaPdDdPLBnEkQDmge5J8KcP3uayPf0MS/Fw4f0zXPEdOHU3R8TSQ7XRTh/2EVt3+8TnccjRd9SQs75jiN0nzSWAzUKPy5upGfhDfNUbGuDSXVnjyz51kx2tgioAYxlvGvhTfaEfYmLXTBPkXcGfuTMp5oX7DLFQ+UMM9RDv++mRJOYS1qRKtf5CQXePxZJS7Ohp/mIgVPhTkDJ3zIy/s6fvBKINdu3Ejpm62yW+AyThOyzFxE6h+FMrh/DA3CkT/23usondOdHW/Bzx9dgIfB4/wsE1/OmmNpgHjnfA/HCx8mfxLxWPerAQKfAmhL/ADbRMn/BnKVTAzQh/AZuXInXf8KdHLCS936fHLOAB3Dw/TqcDqMPDtbn1vb4jhjbmg7Y5VvzsPQU8PPTrFd9gRAHSfIDHQz8uc7dGja/nwW3o7U38Pr4MFTqYYJvCstRNm4U/hRxTAwUnUwMkpG3xDp1u2NJ/6NACcKtOK+lgxoRv8Q1X9Kw8FUF9NjegifuUFNv0Nx5Hx2x0dmNSzJXOe0S+8dz1s6R7PbXJIpLlhi9abcNRCKj4Je1kqbtwog1AT8+50/Px9Bw/fAcANHfrjLR47pnoKAb0N5eQ6udx0NKjIKKf/dhGNLq5jLmDJ9rp+YDm+HrOn6k5PjPngO8Q7/iP34jgD7kASm02umnGy0Z9WPlzqSbHcqYA4c+ZlIUeiPBXaHucJEf4cyJj4QfxDX+FF6SECTYLfyWUotRTyhL+Si1ck5NLWgra5FDW3Qh/1lKxoU8FCH8+1c4vFuEvP+19RSb8+VI63ziEv3z19xGd8OdD5fxjEP6y8wBVP1x6AP1KZx9mlQnhLytlOW5LChD+WpIvmM6Ev2CsajpRwl/T0gXVkfAXlF1NJUv4a0q24DoR/rKzTJd8Ylkq/o7lpPFlodlF/2Bkwp8PlRkjtQKEv9SSBdmB8BekbamSJvylkivYxoS/YK2zTpzwZy1V0A0Jf0HbZ5U84c9KJjbyrQDhz7fi+cQj/OWju8+ohD+faucXi/CXn/a+IhP+fCmdbxzCX776+4hO+POhMmOkVoDwl1qyIDsQ/oK0LVXShL9UcgXbmPAXrHXWiRP+rKUKuiHhL2j7rJIn/FnJxEa+FSD8+VY8n3iEv3x09xmV8OdT7fxiEf7y095XZMKfL6XzjUP4y1d/H9EJfz5UZozUChD+UksWZAfCX5C2pUqa8JdKrmAbE/6Ctc46ccKftVRBNyT8BW2fVfKEPyuZ2Mi3AoQ/34rnE4/wl4/uPqMS/nyqnV8swl9+2vuKTPjzpXS+cQh/+ervIzrhz4fKjJFaAcJfasmC7ED4C9K2VEkT/lLJFWxjwl+w1lknTvizlirohoS/oO2zSp7wZyUTG/lWgPDnW/F84hH+8tHdZ1TCn0+184tF+MtPe1+RCX++lM43DuEvX/19RCf8+VCZMVIrQPhLLVmQHQh/QdqWKmnCXyq5gm1M+AvWOuvECX/WUgXdkPAXtH1WyRP+rGRiI98KEP58K55PPMJfPrr7jEr486l2frEIf/lp7ysy4c+X0vnGIfzlq7+P6IQ/HyozRmoFCH+pJQuyA+EvSNtSJU34SyVXsI0Jf8FaZ5044c9aqqAbEv6Cts8qecKflUxs5FsBwp9vxfOJR/jLR3efUQl/PtXOLxbhLz/tfUUm/PlSOt84hL989fcRnfDnQ2XGSK0A4S+1ZEF2IPwFaVuqpAl/qeQKtjHhL1jrrBMn/FlLFXRDwl/Q9lklT/izkomNfCtA+POteD7xCH/56O4zKuHPp9r5xSL85ae9r8iEP19K5xuH8Jev/j6iE/58qMwYqRUg/KWWLMgOhL8gbUuVNOEvlVzBNib8BWuddeKEP2upgm5I+AvaPqvkCX9WMrGRbwUIf74Vzyce4S8f3X1GJfz5VDu/WIS//LT3FZnw50vpfOMQ/vLV30d0wp8PlRkjtQKEv9SSBdmB8BekbamSJvylkivYxoS/YK2zTpzwZy1V0A0Jf0HbZ5U84c9KJjbyrQDhz7fi+cQj/OWju8+ohD+faucXi/CXn/a+IhP+fCmdbxzCX776+4hO+POhMmOkVoDwl1qyIDsQ/oK0LVXShL9UcgXbmPAXrHXWiRP+rKUKuiHhL2j7rJIn/FnJxEa+FSD8+VY8n3iEv3x09xmV8OdT7fxiEf7y095XZMKfL6XzjUP4y1d/H9EJfz5UZozUChD+UksWZAfCX5C2pUqa8JdKrmAbE/6Ctc46ccKftVRBNyT8BW2fVfKEPyuZ2Mi3AoQ/34rnE4/wl4/uPqMS/nyqnV8swl9+2vuKTPjzpXS+cQh/+ervIzrhz4fKjJFaAcJfasmC7ED4C9K2VEkT/lLJFWxjwl+w1lknTvizlirohoS/oO2zSp7wZyUTG/lWgPDnW/F84hH+8tHdZ1TCn0+184tF+MtPe1+RCX++lM43DuEvX/19RCf8+VCZMVIrQPhLLVmQHQh/QdqWKmnCXyq5gm1M+AvWOuvECX/WUgXdkPAXtH1WyRP+rGRiI98KEP58K55PPMJfPrr7jEr486l2frEIf/lp7ysy4c+X0vnGIfzlq7+P6IQ/HyozRmoFCH+pJQuyA+EvSNtSJU34SyVXsI0Jf8FaZ5044c9aqqAbEv6Cts8qecKflUxs5FsBwp9vxfOJR/jLR3efUQl/PtXOLxbhLz/tfUUm/PlSOt84hL989fcRnfDnQ2XGSK0A4S+1ZEF2IPwFaVuqpAl/qeQKtjHhL1jrrBMn/FlLFXRDwl/Q9lklT/izkomNfCtA+POteD7xCH/56O4zKuHPp9r5xSL85ae9r8iEP19K5xuH8Jev/j6iE/58qMwYqRUg/KWWLMgOhL8gbUuVNOEvlVzBNib8BWuddeKEP2upgm5I+AvaPqvkg4W/c+fOWU2QjcJUYHp6WqR2QVa1t4c5AWZtpcDERJtIrV3a21dZtWej8BSYnr4sdanJqjVrw0ueGVsrMDs5IatrNf6bba1YeA0vz8zIbL0ua1fx3+vw3LPPeGL6srTXarJ6NZ+/7FULq+XsbF26e7rlro99wlnitXq9Xnc2WsJAGQ+fZeoc21IB9bhWq1n2YLMQFaDPIbqWPmf4zJ/l9LqF1IMeh+RW87nS5+a1C6UnPQ7FqdbzdPm/y5nDX+vT5QhUgApQASpABagAFaACVIAKUAEq0KoChL9WFWR/KkAFqAAVoAJUgApQASpABahAAAoQ/gIwiSlSASpABagAFaACVIAKUAEqQAVaVYDw16qC7E8FqAAVoAJUgApQASpABagAFQhAAcJfACYxRSpABagAFaACVIAKUAEqQAWoQKsKEP5aVZD9qQAVoAJUgApQASpABagAFaACAShA+AvAJKZIBagAFaACVIAKUAEqQAWoABVoVQHCX6sKsj8VoAJUgApQASpABagAFaACVCAABQh/AZjEFKkAFaACVIAKUAEqQAWoABWgAq0qQPhrVUH2pwJUgApQASpABagAFaACVIAKBKDA/we3aCQZ5sjZrAAAAABJRU5ErkJggg==&quot; width=&quot;895&quot; height=&quot;321&quot;&gt;&#xa;&#xa;&lt;/div&gt;" style="text;whiteSpace=wrap;html=1;" vertex="1" parent="1">
          <mxGeometry x="320" y="240" width="1060" height="530" as="geometry" />
        </mxCell>
        <mxCell id="b6EZUvEl4iHSQxZVgVPD-2" value="" style="shape=flexArrow;endArrow=classic;html=1;rounded=0;entryX=0.82;entryY=-0.008;entryDx=0;entryDy=0;entryPerimeter=0;sketch=1;curveFitting=1;jiggle=2;strokeWidth=3;width=15;endWidth=33;endSize=26.15;fillColor=#f8cecc;strokeColor=#b85450;" edge="1" parent="1">
          <mxGeometry width="50" height="50" relative="1" as="geometry">
            <mxPoint x="1080" y="70" as="sourcePoint" />
            <mxPoint x="799.9999999999998" y="296.8800000000001" as="targetPoint" />
          </mxGeometry>
        </mxCell>
        <mxCell id="b6EZUvEl4iHSQxZVgVPD-3" value="" style="shape=flexArrow;endArrow=classic;html=1;rounded=0;sketch=1;curveFitting=1;jiggle=2;strokeWidth=3;endSize=18.05;sourcePerimeterSpacing=0;startSize=0;endWidth=22;width=4;fillColor=#dae8fc;strokeColor=#6c8ebf;" edge="1" parent="1">
          <mxGeometry width="50" height="50" relative="1" as="geometry">
            <mxPoint x="800" y="300" as="sourcePoint" />
            <mxPoint x="650" y="170" as="targetPoint" />
          </mxGeometry>
        </mxCell>
        <mxCell id="b6EZUvEl4iHSQxZVgVPD-4" value="" style="html=1;verticalLabelPosition=bottom;align=center;labelBackgroundColor=#ffffff;verticalAlign=top;strokeWidth=2;strokeColor=#0080F0;shadow=0;dashed=0;shape=mxgraph.ios7.icons.eye;" vertex="1" parent="1">
          <mxGeometry x="620" y="150" width="30" height="14.1" as="geometry" />
        </mxCell>
        <mxCell id="b6EZUvEl4iHSQxZVgVPD-5" value="" style="shape=flexArrow;endArrow=classic;html=1;rounded=0;sketch=1;curveFitting=1;jiggle=2;strokeWidth=3;endSize=18.05;sourcePerimeterSpacing=0;startSize=0;endWidth=22;width=4;fillColor=#d5e8d4;strokeColor=#82b366;" edge="1" parent="1">
          <mxGeometry width="50" height="50" relative="1" as="geometry">
            <mxPoint x="800" y="300" as="sourcePoint" />
            <mxPoint x="590" y="220" as="targetPoint" />
          </mxGeometry>
        </mxCell>
        <mxCell id="b6EZUvEl4iHSQxZVgVPD-6" value="" style="shape=flexArrow;endArrow=classic;html=1;rounded=0;sketch=1;curveFitting=1;jiggle=2;strokeWidth=3;endSize=18.05;sourcePerimeterSpacing=0;startSize=0;endWidth=22;width=4;fillColor=#d5e8d4;strokeColor=#82b366;" edge="1" parent="1">
          <mxGeometry width="50" height="50" relative="1" as="geometry">
            <mxPoint x="800" y="300" as="sourcePoint" />
            <mxPoint x="730" y="110" as="targetPoint" />
          </mxGeometry>
        </mxCell>
        <mxCell id="b6EZUvEl4iHSQxZVgVPD-7" value="" style="shape=flexArrow;endArrow=classic;html=1;rounded=0;sketch=1;curveFitting=1;jiggle=2;strokeWidth=3;endSize=18.05;sourcePerimeterSpacing=0;startSize=0;endWidth=22;width=4;fillColor=#d5e8d4;strokeColor=#82b366;" edge="1" parent="1">
          <mxGeometry width="50" height="50" relative="1" as="geometry">
            <mxPoint x="800" y="300" as="sourcePoint" />
            <mxPoint x="880" y="100" as="targetPoint" />
          </mxGeometry>
        </mxCell>
        <mxCell id="b6EZUvEl4iHSQxZVgVPD-9" value="" style="shape=flexArrow;endArrow=classic;html=1;rounded=0;sketch=1;curveFitting=1;jiggle=2;strokeWidth=3;endSize=7.43;sourcePerimeterSpacing=0;startSize=0;endWidth=28;width=3;entryX=0.425;entryY=0.264;entryDx=0;entryDy=0;entryPerimeter=0;fillColor=#e3c800;strokeColor=#B09500;" edge="1" parent="1" target="b6EZUvEl4iHSQxZVgVPD-1">
          <mxGeometry width="50" height="50" relative="1" as="geometry">
            <mxPoint x="800" y="300" as="sourcePoint" />
            <mxPoint x="1120" y="230" as="targetPoint" />
          </mxGeometry>
        </mxCell>
      </root>
    </mxGraphModel>
  </diagram>
</mxfile>
